<svg width="460" height="248" viewBox="0 0 460 248" fill="none" xmlns="http://www.w3.org/2000/svg">
<path d="M63.1975 86.3502C63.3329 86.3502 63.4371 86.3398 63.51 86.3085C63.5777 86.2669 63.7235 86.496 63.9475 86.996C64.1558 87.345 64.4319 87.871 64.7808 88.5794C65.1246 89.2773 65.5829 90.1523 66.1558 91.2044C66.2912 91.345 66.3642 91.4856 66.3642 91.621C66.4319 91.694 66.4683 91.7617 66.4683 91.8294C66.536 91.9856 66.5829 92.095 66.6142 92.1627C66.6558 92.2356 66.7079 92.3398 66.7808 92.4752C66.9162 92.8242 66.9683 93.1575 66.9267 93.4752C66.8954 93.7981 66.6767 94.6575 66.26 96.0585C66.0517 96.8242 65.8694 97.4544 65.7183 97.9544C65.5777 98.444 65.4735 98.7565 65.4058 98.8919C65.4058 98.9648 65.3694 99.0325 65.3017 99.1002C65.3017 99.2408 65.2652 99.3085 65.1975 99.3085C65.1246 99.7408 64.9996 100.241 64.8225 100.809C64.6558 101.366 64.3954 102.027 64.0517 102.788C63.9787 102.861 63.9267 103.074 63.885 103.434C63.8433 103.783 63.6819 104.163 63.4058 104.579C62.2808 107.819 61.4371 110.1 60.885 111.434C60.7444 111.574 60.536 111.923 60.26 112.475C59.5517 114.381 58.8433 115.996 58.135 117.329C57.6454 117.954 57.3017 118.694 57.0933 119.538C56.5204 120.387 55.9267 121.579 55.3017 123.121C54.9527 123.762 54.5621 124.449 54.135 125.184C53.7183 125.923 53.51 126.361 53.51 126.496V126.809L53.1975 127.225C53.0569 127.506 52.9527 127.756 52.885 127.975C52.8121 128.184 52.7079 128.392 52.5725 128.6C52.2808 129.158 52.01 129.631 51.76 130.017C51.5204 130.408 51.3329 130.741 51.1975 131.017C51.0569 131.381 50.8433 131.84 50.5517 132.392C50.2704 132.949 49.9579 133.548 49.6142 134.184L48.0308 137.35C47.8902 137.491 47.8329 137.595 47.8642 137.663C47.9058 137.736 47.8902 137.803 47.8225 137.871C47.6819 138.012 47.3642 138.611 46.8642 139.663C46.5829 140.152 46.3746 140.553 46.2392 140.871C46.0985 141.194 45.9579 141.423 45.8225 141.559C45.6819 141.908 45.5412 142.241 45.4058 142.559C45.2652 142.881 45.0517 143.283 44.76 143.767C44.6871 143.908 44.5829 144.158 44.4475 144.517C44.3069 144.866 44.0621 145.35 43.7183 145.975C43.1454 146.965 42.7392 147.72 42.4892 148.246C42.2496 148.777 42.135 149.074 42.135 149.142L42.0308 149.246C42.0308 149.387 41.9267 149.559 41.7183 149.767C41.5777 149.908 41.4319 150.173 41.2808 150.559C41.1402 150.949 40.9683 151.423 40.76 151.975C40.6194 152.116 40.4944 152.298 40.385 152.517C40.286 152.725 40.2027 152.934 40.135 153.142C39.9944 153.423 39.8902 153.663 39.8225 153.871C39.4579 154.579 39.1871 155.105 39.01 155.454C38.8433 155.814 38.7235 156.064 38.6558 156.204C38.5829 156.272 38.1975 156.204 37.4892 155.996C37.1402 155.84 36.8642 155.73 36.6558 155.663C36.4475 155.59 36.3069 155.559 36.2392 155.559C36.0985 155.559 36.4475 154.579 37.2808 152.621C37.5725 151.913 37.8225 151.246 38.0308 150.621C38.2392 149.986 38.411 149.387 38.5517 148.829L38.9683 148.079L38.6558 146.934C38.6558 146.298 38.6194 145.642 38.5517 144.975C38.4787 144.309 38.3746 143.699 38.2392 143.142C37.9579 141.1 37.6402 139.1 37.2808 137.142C36.9319 135.173 36.5829 133.199 36.2392 131.225C36.1662 131.09 36.1142 130.809 36.0725 130.392C36.0412 129.975 35.9579 129.381 35.8225 128.6C35.5985 127.408 35.385 126.246 35.1767 125.121C34.9683 123.996 34.7235 122.871 34.4475 121.746C34.3746 121.611 34.3225 121.402 34.2808 121.121C34.2496 120.845 34.1662 120.423 34.0308 119.85C33.8902 119.158 33.7652 118.569 33.6558 118.079C33.5412 117.579 33.385 116.975 33.1767 116.267C33.1037 115.85 32.911 115.032 32.5933 113.809C32.286 112.574 31.9527 111.309 31.5933 110.017C31.2444 108.715 30.9319 107.553 30.6558 106.538C30.3746 105.512 30.2392 104.996 30.2392 104.996C30.1662 104.928 29.9735 105.491 29.6558 106.684C29.3329 107.881 28.9319 109.496 28.4475 111.538C28.4475 111.746 28.3329 112.204 28.1142 112.913C27.9058 113.611 27.6975 114.345 27.4892 115.121C27.1402 116.178 26.8642 117.178 26.6558 118.121C26.4475 119.069 26.2287 119.996 26.01 120.913C25.661 122.038 25.4162 122.97 25.2808 123.704C25.1402 124.444 24.9996 125.017 24.8642 125.434C24.7912 125.798 24.6662 126.277 24.4892 126.871C24.3069 127.454 24.1819 127.824 24.1142 127.975C23.9735 128.533 23.8694 128.97 23.8017 129.288C23.7287 129.611 23.661 129.908 23.5933 130.184C23.5204 130.324 23.4892 130.392 23.4892 130.392C23.4892 130.6 23.4527 130.704 23.385 130.704C23.385 130.913 23.2808 131.428 23.0725 132.246C22.8642 133.053 22.6142 133.928 22.3225 134.871C22.0412 135.819 21.7808 136.694 21.5308 137.496C21.2912 138.303 21.1402 138.85 21.0725 139.142L20.9683 139.454C20.9683 139.595 20.9475 139.72 20.9058 139.829C20.8746 139.928 20.8277 140.079 20.76 140.288C20.6871 140.496 20.5308 141.048 20.2808 141.934C20.0308 142.809 19.7652 143.741 19.4892 144.725C19.2079 145.699 18.9579 146.595 18.7392 147.413C18.5308 148.22 18.4267 148.694 18.4267 148.829C18.3537 149.038 18.2496 149.392 18.1142 149.892C17.9735 150.381 17.8017 151.038 17.5933 151.871C17.4527 152.512 17.3485 153.006 17.2808 153.35C17.2079 153.699 17.1402 153.944 17.0725 154.079C16.9996 154.163 16.9683 154.309 16.9683 154.517C16.9683 154.725 16.8902 155.006 16.7392 155.35C16.5308 155.918 16.3902 156.204 16.3225 156.204C16.1142 156.204 15.4787 155.986 14.4267 155.559C14.0777 155.559 13.885 155.522 13.8433 155.454C13.8121 155.381 13.8694 155.142 14.01 154.725C14.0777 154.59 14.2183 154.152 14.4267 153.413C14.635 152.678 14.8485 151.887 15.0725 151.038C15.2808 150.053 15.5569 148.928 15.9058 147.663C16.0412 146.678 16.01 145.309 15.8017 143.559C15.5933 141.798 15.2027 139.579 14.635 136.913C14.5621 136.704 14.51 136.465 14.4683 136.184C14.4371 135.908 14.3902 135.59 14.3225 135.225C14.3225 135.225 14.286 135.038 14.2183 134.663C14.1454 134.277 14.0569 133.84 13.9475 133.35C13.8485 132.85 13.7444 132.408 13.635 132.017C13.536 131.631 13.4892 131.434 13.4892 131.434C13.2079 130.033 12.9475 128.824 12.6975 127.809C12.4475 126.798 12.2496 126.006 12.1142 125.434C12.0412 124.881 11.9371 124.428 11.8017 124.079C11.661 123.512 11.5569 123.158 11.4892 123.017C11.3485 122.309 11.2392 121.819 11.1558 121.538C11.0829 121.194 10.9944 120.809 10.885 120.392C10.786 119.965 10.6662 119.538 10.5308 119.121C9.2652 114.621 7.94749 110.163 6.57249 105.746C5.20791 101.319 3.61936 96.9283 1.80166 92.5794C1.64541 92.2356 1.44749 91.7981 1.19749 91.2669C0.957905 90.7408 0.806864 90.4075 0.739156 90.2669L0.530823 89.7252L0.843323 89.4127C1.11936 89.1367 1.39541 89.069 1.67666 89.2044C1.8277 89.2773 1.97353 89.3815 2.11416 89.5169C2.24957 89.6575 2.49436 89.8294 2.84332 90.0377C2.97874 90.194 3.20791 90.3606 3.53082 90.5377C3.84853 90.7044 4.18186 90.9283 4.53082 91.2044C4.59853 91.2044 4.80686 91.3502 5.15582 91.6419C5.5152 91.9231 5.83291 92.1315 6.11416 92.2669L6.84332 92.8919L7.48916 94.8919C7.62457 95.2408 7.72874 95.5585 7.80166 95.8502C7.86936 96.1315 7.93707 96.371 8.00999 96.5794C8.0777 96.7877 8.14541 96.9648 8.21832 97.1002C8.21832 97.3815 8.24957 97.6315 8.32249 97.8502C8.45791 98.1992 8.56207 98.6523 8.63499 99.2044C8.63499 99.345 8.68186 99.5585 8.78082 99.8502C8.8902 100.131 8.97874 100.371 9.05166 100.579C9.05166 100.788 9.11936 101.033 9.25999 101.309C9.41103 101.465 9.46832 101.642 9.42666 101.85C9.39541 102.059 9.41624 102.236 9.48916 102.371C9.62457 102.861 9.7652 103.319 9.90582 103.746C10.0412 104.163 10.1819 104.579 10.3225 104.996C10.3902 105.288 10.4579 105.595 10.5308 105.913C10.5985 106.22 10.6662 106.548 10.7392 106.892C11.0985 108.309 11.4319 109.631 11.7392 110.85C12.0569 112.074 12.3225 113.178 12.5308 114.163C12.6662 114.663 12.7392 114.949 12.7392 115.017C12.8069 115.157 12.9787 115.809 13.26 116.975C13.5517 118.131 13.9058 119.788 14.3225 121.954C14.3225 122.178 14.3537 122.324 14.4267 122.392C14.4267 122.6 14.4579 122.881 14.5308 123.225C14.6662 123.934 14.9892 125.517 15.4892 127.975C15.5569 128.324 15.5933 128.637 15.5933 128.913C15.5933 129.194 15.661 129.512 15.8017 129.871C16.3537 131.413 16.635 132.991 16.635 134.6C16.9267 135.59 17.0829 136.309 17.1142 136.767C17.1558 137.225 17.1767 137.491 17.1767 137.559C17.1767 137.631 17.2079 137.736 17.2808 137.871C17.3485 138.012 17.385 138.184 17.385 138.392C17.385 138.6 17.4162 138.887 17.4892 139.246C17.6246 139.595 17.6975 139.84 17.6975 139.975C17.6975 140.116 17.6975 140.22 17.6975 140.288L17.9058 139.871C17.9735 139.803 18.0204 139.663 18.0517 139.454C18.0933 139.246 18.1819 138.892 18.3225 138.392C18.3902 138.184 18.4579 137.975 18.5308 137.767C18.6819 137.199 18.76 136.913 18.76 136.913C19.1767 135.236 19.8225 132.715 20.6975 129.35C21.5725 125.975 22.6037 121.652 23.8017 116.371C24.0777 115.178 24.3537 114.095 24.635 113.121C24.9267 112.137 25.1767 111.184 25.385 110.267C25.661 109.282 25.9579 108.017 26.2808 106.475C26.5985 104.934 27.036 103.111 27.5933 100.996C27.7287 100.444 27.8329 99.9908 27.9058 99.6419C27.9735 99.2825 28.0517 99.0325 28.135 98.8919L28.3433 97.8502L27.8017 96.4752C27.5204 95.6992 27.2235 94.8606 26.9058 93.9544C26.5985 93.0377 26.2287 92.0169 25.8017 90.8919C25.5933 90.2565 25.4892 89.9231 25.4892 89.8919C25.4892 89.8502 25.661 89.7252 26.01 89.5169C26.3694 89.3085 26.5517 89.2044 26.5517 89.2044C26.5517 89.2044 27.4267 89.8398 29.1767 91.1002L31.9267 92.996V93.3085C31.9267 93.3815 32.2392 94.7825 32.8642 97.5169C32.9996 98.0898 33.0829 98.5325 33.1142 98.8502C33.1558 99.1575 33.2079 99.4544 33.2808 99.746C33.4162 100.236 33.4996 100.637 33.5308 100.954C33.5725 101.262 33.6246 101.491 33.6975 101.642C33.7808 101.991 33.8329 102.267 33.8642 102.475C33.9058 102.684 33.9267 102.861 33.9267 102.996C33.9944 103.22 34.0308 103.423 34.0308 103.6C34.0308 103.767 34.0621 103.923 34.135 104.059C34.2704 104.616 34.4267 105.34 34.5933 106.225C34.7704 107.1 34.9683 108.137 35.1767 109.329C35.3121 109.887 35.3954 110.345 35.4267 110.704C35.4683 111.053 35.5204 111.298 35.5933 111.434C35.5933 111.642 35.635 111.85 35.7183 112.059C35.7183 112.267 35.786 112.657 35.9267 113.225C36.0621 113.782 36.1454 114.22 36.1767 114.538C36.2183 114.861 36.2704 115.121 36.3433 115.329C36.3433 115.402 36.3537 115.538 36.385 115.746C36.4267 115.954 36.4787 116.241 36.5517 116.6C36.6194 116.741 36.6871 116.97 36.76 117.288C36.8277 117.595 36.8642 117.782 36.8642 117.85C36.9319 118.215 36.9683 118.553 36.9683 118.871C36.9683 119.178 37.036 119.611 37.1767 120.163C37.2444 120.527 37.3121 120.902 37.385 121.288C37.4527 121.663 37.5621 122.137 37.7183 122.704C37.8537 123.47 37.9735 124.225 38.0725 124.975C38.1819 125.715 38.3433 126.465 38.5517 127.225C38.5517 128.006 38.6871 129.095 38.9683 130.496C39.1037 131.053 39.1767 131.527 39.1767 131.913C39.1767 132.303 39.1767 132.6 39.1767 132.809C39.3277 133.158 39.4371 133.512 39.51 133.871C39.5777 134.22 39.6454 134.6 39.7183 135.017C40.0621 136.85 40.3069 138.538 40.4475 140.079C40.5829 141.621 40.7235 142.991 40.8642 144.184V144.725L41.0725 144.288C41.0725 144.22 41.2496 143.767 41.6142 142.934C42.0985 142.09 42.5152 141.173 42.8642 140.184C43.0829 139.631 43.3017 139.178 43.51 138.829C43.7183 138.47 43.8902 138.152 44.0308 137.871C44.2392 137.527 44.3537 137.298 44.385 137.184C44.4267 137.074 44.4475 137.017 44.4475 137.017C44.4475 137.017 44.4475 136.986 44.4475 136.913C44.4475 136.845 44.5517 136.673 44.76 136.392C44.8954 135.975 45.036 135.611 45.1767 135.288C45.3277 134.97 45.4735 134.673 45.6142 134.392C45.8902 133.975 46.1662 133.527 46.4475 133.038C46.7235 132.538 46.9371 132.048 47.0933 131.559C47.161 131.267 47.2652 131.038 47.4058 130.871C47.5412 130.694 47.6819 130.428 47.8225 130.079C47.8902 129.803 47.9735 129.574 48.0725 129.392C48.1819 129.215 48.2392 129.053 48.2392 128.913C48.3746 128.569 48.6194 128.048 48.9683 127.35C49.3277 126.642 49.7496 125.762 50.2392 124.704C52.3485 120.137 54.3329 115.538 56.1975 110.913C58.0569 106.277 59.5829 101.533 60.7808 96.6835C61.1975 95.2825 61.4058 94.4075 61.4058 94.0585C61.4735 93.9908 61.5569 93.6419 61.6558 93.0169C61.7652 92.3815 61.8746 91.6731 61.9892 90.8919C62.0985 90.1158 62.1871 89.3815 62.26 88.6835C62.3277 87.9752 62.3642 87.5533 62.3642 87.4127V86.6835L62.6767 86.5794C62.6037 86.5794 62.7808 86.5065 63.1975 86.3502Z" fill="#3D3B3A"/>
<path d="M84.2556 110.371C84.615 110.303 85.214 110.267 86.0473 110.267C86.891 110.267 87.49 110.34 87.839 110.475C90.089 110.908 92.0056 112.225 93.589 114.434C95.1723 116.642 96.2765 119.538 96.9015 123.121C97.2452 125.236 97.3494 127.621 97.214 130.288C97.141 131.902 96.9327 133.694 96.589 135.663C95.9483 139.871 94.615 143.803 92.589 147.454C91.8806 148.788 91.4223 149.559 91.214 149.767L91.1098 149.871C91.1098 149.944 91.0733 150.012 91.0056 150.079C90.7244 150.579 90.3702 151.027 89.9431 151.413C89.5265 151.788 89.0733 152.194 88.589 152.621C87.464 153.595 86.1202 154.329 84.5681 154.829C83.0265 155.314 81.5525 155.486 80.1515 155.35C79.1619 155.21 78.2869 154.97 77.5265 154.621C76.3285 154.053 75.2035 153.1 74.1515 151.767C72.9535 150.225 72.0056 148.408 71.2973 146.309C70.5994 144.199 70.115 141.809 69.839 139.142C69.766 138.366 69.7348 137.678 69.7348 137.079C69.7348 136.486 69.7348 135.908 69.7348 135.35C69.8025 132.673 70.0785 130.142 70.5681 127.767C71.0681 125.381 71.766 123.163 72.6723 121.121C74.0733 117.954 75.7608 115.465 77.7348 113.642C79.7035 111.824 81.8806 110.736 84.2556 110.371ZM86.7973 113.121C85.464 112.829 84.4067 112.798 83.6306 113.017C83.214 113.158 82.8233 113.283 82.464 113.392C82.115 113.491 81.766 113.642 81.4223 113.85C80.5056 114.423 79.6775 115.163 78.9431 116.079C78.2035 116.986 77.516 118.033 76.8806 119.225C76.1827 120.559 75.6306 121.788 75.214 122.913C74.641 124.319 74.2348 125.777 73.9848 127.288C73.7452 128.788 73.5577 130.423 73.4223 132.184C73.2817 133.725 73.1723 135.152 73.089 136.454C73.016 137.746 73.0577 138.954 73.214 140.079C73.3494 141.694 73.5733 143.152 73.8806 144.454C74.1983 145.746 74.6098 146.887 75.1098 147.871C76.7869 151.178 79.0681 152.829 81.9431 152.829C83.2035 152.829 84.5056 152.371 85.839 151.454C86.615 150.902 87.3858 150.22 88.1515 149.413C88.9275 148.595 89.5994 147.59 90.1723 146.392C91.8494 143.1 92.9692 139.527 93.5265 135.663C93.6619 134.194 93.766 132.736 93.839 131.288C93.9223 129.845 93.8858 128.387 93.7348 126.913C93.6619 124.178 93.2817 121.756 92.589 119.642C91.391 115.923 89.464 113.746 86.7973 113.121Z" fill="#3D3B3A"/>
<path d="M118.171 110.371C118.531 110.303 119.13 110.267 119.963 110.267C120.807 110.267 121.406 110.34 121.755 110.475C124.005 110.908 125.921 112.225 127.505 114.434C129.088 116.642 130.192 119.538 130.817 123.121C131.161 125.236 131.265 127.621 131.13 130.288C131.057 131.902 130.848 133.694 130.505 135.663C129.864 139.871 128.531 143.803 126.505 147.454C125.796 148.788 125.338 149.559 125.13 149.767L125.025 149.871C125.025 149.944 124.989 150.012 124.921 150.079C124.64 150.579 124.286 151.027 123.859 151.413C123.442 151.788 122.989 152.194 122.505 152.621C121.38 153.595 120.036 154.329 118.484 154.829C116.942 155.314 115.468 155.486 114.067 155.35C113.078 155.21 112.203 154.97 111.442 154.621C110.244 154.053 109.119 153.1 108.067 151.767C106.869 150.225 105.921 148.408 105.213 146.309C104.515 144.199 104.031 141.809 103.755 139.142C103.682 138.366 103.65 137.678 103.65 137.079C103.65 136.486 103.65 135.908 103.65 135.35C103.718 132.673 103.994 130.142 104.484 127.767C104.984 125.381 105.682 123.163 106.588 121.121C107.989 117.954 109.676 115.465 111.65 113.642C113.619 111.824 115.796 110.736 118.171 110.371ZM120.713 113.121C119.38 112.829 118.322 112.798 117.546 113.017C117.13 113.158 116.739 113.283 116.38 113.392C116.031 113.491 115.682 113.642 115.338 113.85C114.421 114.423 113.593 115.163 112.859 116.079C112.119 116.986 111.432 118.033 110.796 119.225C110.098 120.559 109.546 121.788 109.13 122.913C108.557 124.319 108.15 125.777 107.9 127.288C107.661 128.788 107.473 130.423 107.338 132.184C107.197 133.725 107.088 135.152 107.005 136.454C106.932 137.746 106.973 138.954 107.13 140.079C107.265 141.694 107.489 143.152 107.796 144.454C108.114 145.746 108.525 146.887 109.025 147.871C110.703 151.178 112.984 152.829 115.859 152.829C117.119 152.829 118.421 152.371 119.755 151.454C120.531 150.902 121.301 150.22 122.067 149.413C122.843 148.595 123.515 147.59 124.088 146.392C125.765 143.1 126.885 139.527 127.442 135.663C127.578 134.194 127.682 132.736 127.755 131.288C127.838 129.845 127.801 128.387 127.65 126.913C127.578 124.178 127.197 121.756 126.505 119.642C125.307 115.923 123.38 113.746 120.713 113.121Z" fill="#3D3B3A"/>
<path d="M166.42 88.1419C166.764 88.0065 166.972 87.97 167.045 88.0377C167.264 88.3294 167.483 88.6158 167.691 88.8919C167.827 89.1002 167.983 89.2981 168.149 89.4752C168.327 89.6419 168.42 89.7617 168.42 89.8294C168.488 89.97 168.681 90.3242 169.004 90.8919C169.321 91.4492 169.655 91.944 170.004 92.371L170.42 92.8919L170.316 94.2669C170.243 94.4752 170.191 94.7773 170.149 95.1627C170.118 95.5377 170.071 95.9544 170.004 96.4127C169.931 96.871 169.879 97.3294 169.837 97.7877C169.806 98.246 169.795 98.5794 169.795 98.7877L169.587 100.267V101.1C169.514 101.6 169.405 102.277 169.254 103.121C169.113 103.954 168.988 104.829 168.879 105.746C168.78 106.663 168.675 107.512 168.566 108.288C168.467 109.053 168.384 109.611 168.316 109.954C168.175 110.444 168.071 111.006 168.004 111.642C167.931 112.131 167.842 112.637 167.733 113.163C167.634 113.694 167.514 114.241 167.379 114.809C167.222 115.225 167.149 115.574 167.149 115.85C166.733 118.449 165.993 122.767 164.941 128.809C164.941 128.881 164.884 129.283 164.774 130.017C164.675 130.756 164.556 131.475 164.42 132.184C164.212 133.1 164.004 134.158 163.795 135.35C163.795 135.491 163.759 135.788 163.691 136.246C163.618 136.694 163.509 137.131 163.358 137.559C163.077 138.965 162.816 140.35 162.566 141.725C162.327 143.09 162.071 144.47 161.795 145.871C161.795 146.012 161.774 146.152 161.733 146.288C161.702 146.428 161.691 146.574 161.691 146.725C161.608 146.866 161.566 147.006 161.566 147.142L161.462 147.559C161.389 147.699 161.358 147.84 161.358 147.975C161.358 148.116 161.321 148.256 161.254 148.392C160.972 149.658 160.696 150.965 160.42 152.309C160.139 153.642 159.785 154.908 159.358 156.1C159.285 156.585 159.217 156.829 159.149 156.829C159.077 157.038 158.972 157.142 158.837 157.142C158.347 157.069 157.925 157.038 157.566 157.038C157.285 157.038 157.024 157.017 156.774 156.975C156.535 156.944 156.452 156.934 156.524 156.934L156.629 156.829V156.621C156.696 156.48 156.764 156.251 156.837 155.934C156.905 155.611 157.009 155.21 157.149 154.725C157.358 153.809 157.53 153.111 157.67 152.621C157.738 152.486 157.827 152.152 157.941 151.621C158.05 151.095 158.175 150.553 158.316 149.996C158.452 149.428 158.571 148.902 158.67 148.413C158.78 147.913 158.837 147.631 158.837 147.559V147.142C157.295 149.809 155.431 151.881 153.254 153.35C151.988 154.267 150.722 154.902 149.462 155.246C148.196 155.59 146.967 155.694 145.774 155.559C144.785 155.486 143.8 155.142 142.816 154.517C140.509 153.048 138.946 150.392 138.129 146.559C137.321 142.725 137.41 138.074 138.399 132.6C138.535 131.684 138.712 130.777 138.92 129.871C139.139 128.954 139.389 128.074 139.67 127.225C140.087 125.475 140.785 123.621 141.774 121.663C142.759 119.694 143.967 117.866 145.399 116.184C146.842 114.491 148.441 113.1 150.191 112.017C151.952 110.923 153.847 110.371 155.879 110.371C156.795 110.371 157.722 110.465 158.67 110.642C159.629 110.824 160.488 111.194 161.254 111.746C161.681 112.027 162.196 112.413 162.795 112.913C163.389 113.402 163.795 113.819 164.004 114.163C163.931 114.163 164.004 114.267 164.212 114.475C164.212 114.631 164.243 114.741 164.316 114.809L164.524 113.225C164.66 112.381 164.78 111.413 164.879 110.329C164.988 109.236 165.113 108.111 165.254 106.954C165.405 105.803 165.514 104.699 165.587 103.642C165.655 102.59 165.691 101.637 165.691 100.788C165.827 98.47 165.91 96.5273 165.941 94.9544C165.983 93.371 165.967 92.194 165.899 91.4127V88.246L166.42 88.1419ZM158.316 112.809C157.467 112.59 156.41 112.548 155.149 112.684C153.535 112.908 152.009 113.548 150.566 114.6C149.118 115.642 148.014 116.908 147.254 118.392C147.045 118.741 146.884 118.986 146.774 119.121C146.66 119.262 146.587 119.329 146.545 119.329C146.514 119.329 146.483 119.35 146.441 119.392C146.41 119.423 146.327 119.506 146.191 119.642V119.85C146.05 119.991 145.946 120.137 145.879 120.288C145.806 120.428 145.67 120.673 145.462 121.017C143.139 124.949 141.67 129.34 141.045 134.184C140.821 135.798 140.675 137.361 140.608 138.871C140.535 140.387 140.535 141.845 140.608 143.246C140.743 144.079 140.905 145.012 141.087 146.038C141.264 147.053 141.545 148.038 141.92 148.996C142.306 149.944 142.837 150.783 143.504 151.517C144.17 152.256 144.993 152.694 145.983 152.829C147.592 153.038 149.384 152.512 151.358 151.246C152.618 150.538 153.795 149.631 154.879 148.517C155.972 147.392 156.941 146.142 157.774 144.767C158.618 143.392 159.321 141.97 159.879 140.496C160.446 139.027 160.837 137.59 161.045 136.184C161.045 135.975 161.077 135.678 161.149 135.288C161.217 134.902 161.285 134.428 161.358 133.871C161.649 132.246 161.91 130.684 162.149 129.184C162.399 127.673 162.629 126.142 162.837 124.6C162.905 124.173 162.941 123.803 162.941 123.496C162.941 123.178 162.972 122.845 163.045 122.496C163.045 122.204 163.092 121.908 163.191 121.6C163.3 121.283 163.389 120.913 163.462 120.496L163.691 119.121L163.462 118.704C162.488 116.663 161.67 115.241 161.004 114.434C160.337 113.631 159.441 113.09 158.316 112.809Z" fill="#3D3B3A"/>
<path d="M193.282 110.163C193.625 110.163 194.032 110.163 194.49 110.163C194.948 110.163 195.49 110.199 196.115 110.267C197.375 110.407 198.224 110.548 198.657 110.684C200.266 111.256 201.646 112.157 202.802 113.392C203.969 114.616 204.724 116.137 205.073 117.954C205.573 120.069 205.433 122.387 204.657 124.913C203.875 127.303 202.683 128.954 201.073 129.871C199.808 130.845 198.224 131.548 196.323 131.975C195.558 132.184 194.875 132.345 194.282 132.454C193.683 132.553 193.209 132.673 192.865 132.809C192.5 132.881 192.198 132.949 191.948 133.017C191.709 133.09 191.453 133.157 191.177 133.225C190.677 133.225 190.287 133.303 190.011 133.454C189.87 133.527 189.605 133.595 189.219 133.663C188.828 133.736 188.287 133.84 187.594 133.975C185.344 134.392 183.407 134.746 181.782 135.038C180.167 135.319 178.875 135.527 177.907 135.663L177.365 135.767L177.261 136.6C177.188 136.949 177.136 137.35 177.094 137.809C177.063 138.267 177.052 138.85 177.052 139.559C176.844 143.767 177.438 147.069 178.844 149.454C179.052 149.803 179.396 150.262 179.886 150.829C180.386 151.387 180.844 151.767 181.261 151.975C181.969 152.34 182.667 152.611 183.365 152.788C184.073 152.954 184.813 153.038 185.594 153.038C186.855 153.038 188.099 152.809 189.323 152.35C190.558 151.892 191.844 151.282 193.177 150.517C194.995 149.392 196.677 147.954 198.219 146.204C199.771 144.444 201.042 142.538 202.032 140.496C202.516 139.803 202.933 138.861 203.282 137.663L203.49 137.35L204.24 137.663C204.792 137.871 205.073 137.975 205.073 137.975C205.073 137.975 204.896 138.611 204.552 139.871C203.287 143.803 201.287 147.137 198.552 149.871C197.427 151.069 196.334 152.017 195.282 152.725C193.948 153.631 192.521 154.309 191.011 154.767C189.495 155.225 187.865 155.522 186.115 155.663C184.141 155.73 182.453 155.486 181.052 154.934C179.021 154.017 177.516 152.788 176.532 151.246C175.266 149.204 174.532 146.538 174.323 143.246C174.115 140.861 174.183 138.262 174.532 135.454C174.599 135.095 174.636 134.704 174.636 134.288C174.98 132.038 175.49 129.829 176.157 127.663C176.823 125.486 177.787 123.34 179.052 121.225C179.261 120.881 179.453 120.532 179.636 120.184C179.813 119.824 180.078 119.434 180.427 119.017C181.412 117.616 182.48 116.35 183.636 115.225C184.802 114.1 186.052 113.152 187.386 112.371C189.48 111.111 191.448 110.371 193.282 110.163ZM197.073 113.225C196.573 113.09 195.865 113.017 194.948 113.017C194.042 113.017 193.453 113.053 193.177 113.121C191.203 113.402 189.344 114.204 187.594 115.538C187.245 115.819 186.891 116.116 186.532 116.434C186.183 116.756 185.802 117.121 185.386 117.538C182.146 120.704 179.828 124.954 178.427 130.288C177.938 132.402 177.698 133.454 177.698 133.454C177.766 133.527 178.167 133.47 178.907 133.288C179.641 133.111 180.709 132.913 182.115 132.704C183.584 132.496 184.886 132.309 186.011 132.142C187.136 131.965 188.084 131.767 188.865 131.559C189.282 131.407 189.594 131.329 189.802 131.329C190.011 131.329 190.183 131.298 190.323 131.225C191.099 131.09 191.834 130.902 192.532 130.663C193.24 130.413 193.912 130.22 194.552 130.079C195.813 129.72 196.865 129.35 197.698 128.975C198.542 128.59 199.282 128.074 199.907 127.434C200.75 126.6 201.386 125.59 201.802 124.392C202.719 121.725 202.75 119.444 201.907 117.538C201.558 116.762 201.209 116.095 200.865 115.538C200.516 114.986 199.99 114.491 199.282 114.059C198.933 113.85 198.578 113.699 198.219 113.6C197.87 113.491 197.49 113.366 197.073 113.225Z" fill="#3D3B3A"/>
<path d="M220.342 109.642C220.41 109.715 220.514 109.783 220.655 109.85C220.722 109.991 220.811 110.116 220.925 110.225C221.035 110.324 221.16 110.444 221.3 110.579C221.852 111.152 222.29 111.642 222.613 112.059C222.931 112.475 223.264 112.866 223.613 113.225C224.03 113.642 224.165 113.954 224.03 114.163C224.03 114.303 224.03 114.465 224.03 114.642C224.03 114.824 223.957 115.09 223.821 115.434C223.613 116.283 223.415 116.97 223.238 117.496C223.071 118.012 222.951 118.449 222.884 118.809C222.451 121.408 222.238 122.777 222.238 122.913C222.238 123.121 222.415 122.986 222.78 122.496C223.54 121.303 224.519 120.006 225.717 118.6C226.91 117.199 228.222 115.887 229.655 114.663C231.097 113.428 232.592 112.408 234.134 111.6C235.686 110.783 237.201 110.371 238.675 110.371C240.076 110.371 241.092 110.673 241.717 111.267C242.352 111.866 242.847 112.829 243.196 114.163C243.488 115.428 243.519 117.288 243.3 119.746C243.227 120.527 243.16 121.246 243.092 121.913C243.019 122.579 242.951 123.303 242.884 124.079C242.811 124.428 242.759 124.694 242.717 124.871C242.686 125.038 242.675 125.158 242.675 125.225C242.675 125.298 242.655 125.444 242.613 125.663C242.582 125.871 242.535 126.152 242.467 126.496C242.394 126.777 242.342 127.038 242.3 127.288C242.269 127.527 242.259 127.824 242.259 128.184C242.186 128.741 242.061 129.444 241.884 130.288C241.717 131.137 241.488 132.152 241.196 133.329C241.056 133.902 240.988 134.381 240.988 134.767C240.988 135.158 240.951 135.454 240.884 135.663C240.811 135.871 240.78 136.079 240.78 136.288C240.78 136.496 240.743 136.673 240.675 136.809C240.186 139.767 239.868 142.444 239.717 144.829C239.576 147.204 239.686 148.887 240.05 149.871C240.394 150.72 240.602 151.178 240.675 151.246C240.743 151.246 240.78 151.267 240.78 151.309C240.78 151.34 240.951 151.527 241.3 151.871C242.076 152.444 242.743 152.725 243.3 152.725C244.144 152.725 244.8 152.267 245.259 151.35C245.717 150.434 246.326 148.642 247.092 145.975C247.311 145.059 247.493 144.6 247.634 144.6C247.91 144.6 248.155 144.85 248.363 145.35C248.363 145.491 248.394 145.777 248.467 146.204C248.535 146.621 248.639 147.006 248.78 147.35C248.931 147.767 249.009 148.09 249.009 148.309C249.009 148.517 249.009 148.694 249.009 148.829C248.785 149.803 248.306 150.944 247.571 152.246C246.832 153.553 246.009 154.486 245.092 155.038C244.259 155.522 243.243 155.626 242.05 155.35C240.717 155.069 239.602 154.361 238.717 153.204C237.842 152.038 237.227 150.616 236.884 148.934C236.811 148.574 236.743 148.048 236.675 147.35C236.602 146.642 236.602 145.803 236.675 144.829C236.743 143.637 236.936 141.902 237.259 139.621C237.576 137.329 238.014 134.887 238.571 132.288V131.975L238.78 131.017V130.704C238.78 130.288 238.811 130.048 238.884 129.975C239.019 129.616 239.373 127.611 239.946 123.954C240.431 120.527 240.571 117.986 240.363 116.329C240.155 114.678 239.66 113.678 238.884 113.329C238.467 113.194 238.04 113.121 237.613 113.121C236.571 113.194 235.415 113.559 234.155 114.225C232.889 114.892 231.446 115.928 229.821 117.329C228.988 118.178 228.076 119.178 227.092 120.329C226.102 121.486 225.155 122.678 224.238 123.913C223.332 125.137 222.55 126.402 221.884 127.704C221.217 129.012 220.769 130.256 220.55 131.434C220.342 132.423 220.134 133.512 219.925 134.704C219.717 135.902 219.436 137.163 219.092 138.496C218.936 139.204 218.826 139.663 218.759 139.871C218.686 140.079 218.655 140.256 218.655 140.392C218.655 140.392 218.582 140.746 218.446 141.454C218.097 142.928 217.764 144.194 217.446 145.246C217.123 146.303 216.863 147.074 216.655 147.559C216.582 147.631 216.53 147.788 216.488 148.038C216.457 148.277 216.373 148.678 216.238 149.246C215.889 150.095 215.556 151.059 215.238 152.142C214.915 153.225 214.55 154.402 214.134 155.663C214.061 155.881 213.889 155.996 213.613 155.996C213.472 155.996 213.259 155.975 212.967 155.934C212.686 155.892 212.41 155.871 212.134 155.871C211.852 155.871 211.623 155.85 211.446 155.809C211.264 155.777 211.207 155.73 211.28 155.663C212.764 151.803 213.957 147.861 214.863 143.829C215.78 139.788 216.592 135.736 217.3 131.663C217.436 130.538 217.576 129.506 217.717 128.559C217.852 127.6 217.993 126.631 218.134 125.642C218.342 124.033 218.514 122.616 218.655 121.392C218.79 120.158 218.905 119.158 218.988 118.392C219.056 117.824 219.071 117.329 219.03 116.913C218.998 116.486 219.056 116.163 219.196 115.954C219.196 115.954 219.196 115.715 219.196 115.225C219.332 114.381 219.384 113.553 219.342 112.746C219.311 111.944 219.3 111.116 219.3 110.267L219.196 109.746H219.613L219.925 109.642H220.342Z" fill="#3D3B3A"/>
<path d="M298.494 88.246C300.046 88.1106 301.504 88.095 302.869 88.2044C304.244 88.319 305.629 88.5117 307.036 88.7877C307.452 88.8606 308.025 89.0325 308.765 89.3085C309.499 89.5898 310.27 89.9075 311.077 90.2669C311.895 90.6158 312.619 90.9856 313.244 91.371C313.879 91.746 314.307 92.1523 314.515 92.5794C314.515 92.5794 314.65 92.8919 314.932 93.5169C314.999 93.6575 315.046 93.819 315.077 93.996C315.119 94.1783 315.171 94.3398 315.244 94.4752C315.244 94.6158 315.275 94.7565 315.348 94.8919L315.661 95.8502C315.661 95.9908 315.52 96.2669 315.244 96.6835C315.103 96.8242 314.963 96.996 314.827 97.2044L314.619 96.996C314.546 96.8606 314.338 96.6158 313.994 96.2669C311.879 93.6731 309.317 91.9856 306.307 91.2044C305.317 90.996 304.265 90.845 303.14 90.746C302.015 90.6367 300.749 90.6523 299.348 90.7877C297.234 90.9283 295.249 91.4908 293.39 92.4752C291.525 93.4648 290.067 94.8658 289.015 96.6835C288.458 97.6731 288.02 98.7981 287.702 100.059C287.379 101.324 287.291 102.657 287.432 104.059C287.65 106.798 288.463 109.116 289.869 111.017C291.27 112.907 293.098 114.59 295.348 116.059C295.9 116.423 296.619 116.829 297.494 117.288C298.379 117.736 299.494 118.345 300.827 119.121C303.202 120.454 305.025 121.512 306.307 122.288C306.374 122.361 306.478 122.428 306.619 122.496C306.754 122.569 306.963 122.673 307.244 122.809C309.978 124.423 312.379 126.282 314.452 128.392C316.52 130.506 317.666 133.241 317.89 136.6C318.025 137.59 318.041 138.595 317.932 139.621C317.833 140.637 317.603 141.631 317.244 142.6C315.629 147.1 313.015 150.387 309.39 152.454C305.775 154.527 301.692 155.559 297.14 155.559C295.515 155.559 293.895 155.371 292.286 154.996C290.671 154.611 289.182 153.991 287.807 153.142C286.442 152.298 285.249 151.262 284.223 150.038C283.208 148.803 282.458 147.345 281.973 145.663C281.682 144.954 281.499 144.361 281.432 143.871C281.359 143.387 281.291 142.996 281.223 142.704L281.119 142.184L281.64 142.079C281.999 142.012 282.192 141.965 282.223 141.934C282.265 141.892 282.458 142.194 282.807 142.829C283.999 145.428 285.192 147.324 286.39 148.517C286.39 148.59 286.437 148.715 286.536 148.892C286.645 149.059 286.734 149.142 286.807 149.142C287.223 149.84 287.853 150.434 288.702 150.934C289.546 151.423 290.458 151.824 291.432 152.142C292.416 152.465 293.416 152.694 294.432 152.829C295.458 152.97 296.327 153.038 297.036 153.038C300.254 153.111 303.062 152.579 305.452 151.454C307.77 150.329 309.791 148.767 311.515 146.767C313.234 144.767 314.234 142.434 314.515 139.767C314.65 139.35 314.702 138.72 314.661 137.871C314.629 137.027 314.583 136.392 314.515 135.975C313.942 133.725 312.796 131.762 311.077 130.079C309.369 128.387 307.525 127.017 305.557 125.975C304.999 125.684 304.504 125.423 304.077 125.184C303.661 124.934 303.275 124.704 302.932 124.496C302.223 124.137 301.359 123.663 300.348 123.079C299.333 122.486 298.312 121.871 297.286 121.246C296.27 120.611 295.27 119.991 294.286 119.392C293.296 118.798 292.494 118.246 291.869 117.746C289.202 115.72 287.213 113.684 285.911 111.642C284.619 109.6 283.9 107.246 283.765 104.579C283.682 103.387 283.749 102.053 283.973 100.579C284.39 97.2044 285.999 94.3658 288.807 92.0585C289.374 91.4908 290.062 90.996 290.869 90.5794C291.671 90.1523 292.515 89.7825 293.39 89.4752C294.265 89.1575 295.161 88.8919 296.077 88.6835C296.994 88.4752 297.796 88.3294 298.494 88.246Z" fill="#3D3B3A"/>
<path d="M336.323 94.7877C336.459 94.7877 336.636 94.6835 336.844 94.4752C336.979 94.8919 337.156 95.3867 337.365 95.9544C337.709 96.996 338.344 98.4335 339.261 100.267L340.115 101.954L339.573 102.892C339.224 103.6 338.948 104.449 338.74 105.434C338.531 106.407 338.209 107.6 337.781 109.017C337.781 109.09 337.745 109.157 337.677 109.225L337.469 110.059C337.396 110.131 337.365 110.199 337.365 110.267C337.016 111.465 336.875 112.059 336.948 112.059C337.016 112.059 337.084 112.059 337.156 112.059H337.573C339.334 111.782 340.724 111.506 341.74 111.225C342.75 110.934 343.396 110.72 343.677 110.579C343.828 110.444 343.99 110.303 344.156 110.163C344.334 110.027 344.531 109.887 344.74 109.746L345.365 109.434L347.698 110.371C348.042 110.512 348.37 110.637 348.677 110.746C348.995 110.861 349.266 110.986 349.49 111.121C349.766 111.262 350.042 111.366 350.323 111.434C350.459 111.434 350.495 111.491 350.427 111.6C350.354 111.699 350.25 112.1 350.115 112.809V113.225L348.844 113.329C348.427 113.329 347.552 113.387 346.219 113.496C344.886 113.595 343.474 113.736 341.99 113.913C340.516 114.079 339.203 114.236 338.052 114.371C336.896 114.512 336.287 114.657 336.219 114.809C336.136 114.809 336.094 114.866 336.094 114.975C336.094 115.074 336.021 115.366 335.886 115.85C334.688 119.574 333.584 123.756 332.573 128.392C331.558 133.032 330.87 137.35 330.511 141.35C330.37 142.684 330.209 143.913 330.031 145.038C329.865 146.163 329.849 147.215 329.99 148.184C330.198 150.642 330.828 152.157 331.886 152.725C332.521 153.006 333.292 153.038 334.198 152.829C334.625 152.694 335.031 152.496 335.406 152.246C335.792 151.996 336.167 151.736 336.531 151.454C337.5 150.762 338.302 150.012 338.927 149.204C339.563 148.387 340.24 147.381 340.948 146.184C341.156 145.767 341.328 145.444 341.469 145.204C341.604 144.954 341.787 144.798 342.011 144.725C342.219 144.725 342.427 144.684 342.636 144.6H343.052L342.844 145.038C342.844 145.246 342.875 145.423 342.948 145.559C342.948 145.699 342.959 145.84 342.99 145.975C343.031 146.116 343.052 146.256 343.052 146.392C343.12 146.892 343.12 147.303 343.052 147.621C342.979 147.928 342.912 148.225 342.844 148.517L342.948 149.246L342.636 149.767C341.787 151.173 340.729 152.366 339.469 153.35C338.203 154.34 336.802 155.038 335.261 155.454C334.844 155.59 334.209 155.663 333.365 155.663C332.516 155.663 331.917 155.59 331.573 155.454C329.75 155.038 328.625 153.913 328.198 152.079C327.641 149.986 327.469 147.074 327.677 143.35C327.677 142.366 327.781 141.157 327.99 139.725C328.198 138.282 328.427 136.767 328.677 135.184C328.927 133.6 329.224 132.027 329.573 130.454C329.917 128.871 330.229 127.486 330.511 126.288C330.662 125.72 330.787 125.1 330.886 124.434C330.995 123.767 331.188 122.975 331.469 122.059C331.953 119.824 332.334 118.178 332.615 117.121C332.906 116.069 333.084 115.47 333.156 115.329C333.224 115.262 333.084 115.225 332.74 115.225L331.886 115.329C331.745 115.329 331.641 115.35 331.573 115.392C331.5 115.423 331.396 115.434 331.261 115.434L330.094 115.642C329.953 115.642 329.849 115.663 329.781 115.704C329.709 115.736 329.604 115.746 329.469 115.746C328.552 115.887 327.99 115.991 327.781 116.059C327.781 116.059 327.25 115.887 326.198 115.538C326.125 115.538 325.865 115.538 325.406 115.538C324.948 115.538 324.37 115.298 323.677 114.809L323.052 114.371V113.746C323.052 113.402 323.084 113.194 323.156 113.121C324.766 113.121 326.391 113.09 328.031 113.017C329.683 112.949 331.323 112.803 332.948 112.579C333.084 112.579 333.224 112.579 333.365 112.579C333.5 112.579 333.641 112.512 333.781 112.371C333.849 112.236 333.953 111.6 334.094 110.475C334.245 109.35 334.531 107.741 334.948 105.642C335.016 105.282 335.063 104.595 335.094 103.579C335.136 102.569 335.224 101.256 335.365 99.6419L335.886 94.7877H336.323Z" fill="#3D3B3A"/>
<path d="M368.22 110.371C368.58 110.303 369.178 110.267 370.012 110.267C370.856 110.267 371.455 110.34 371.803 110.475C374.053 110.908 375.97 112.225 377.553 114.434C379.137 116.642 380.241 119.538 380.866 123.121C381.21 125.236 381.314 127.621 381.178 130.288C381.106 131.902 380.897 133.694 380.553 135.663C379.913 139.871 378.58 143.803 376.553 147.454C375.845 148.788 375.387 149.559 375.178 149.767L375.074 149.871C375.074 149.944 375.038 150.012 374.97 150.079C374.689 150.579 374.335 151.027 373.908 151.413C373.491 151.788 373.038 152.194 372.553 152.621C371.428 153.595 370.085 154.329 368.533 154.829C366.991 155.314 365.517 155.486 364.116 155.35C363.126 155.21 362.251 154.97 361.491 154.621C360.293 154.053 359.168 153.1 358.116 151.767C356.918 150.225 355.97 148.408 355.262 146.309C354.564 144.199 354.08 141.809 353.803 139.142C353.731 138.366 353.699 137.678 353.699 137.079C353.699 136.486 353.699 135.908 353.699 135.35C353.767 132.673 354.043 130.142 354.533 127.767C355.033 125.381 355.731 123.163 356.637 121.121C358.038 117.954 359.725 115.465 361.699 113.642C363.668 111.824 365.845 110.736 368.22 110.371ZM370.762 113.121C369.428 112.829 368.371 112.798 367.595 113.017C367.178 113.158 366.788 113.283 366.428 113.392C366.08 113.491 365.731 113.642 365.387 113.85C364.47 114.423 363.642 115.163 362.908 116.079C362.168 116.986 361.481 118.033 360.845 119.225C360.147 120.559 359.595 121.788 359.178 122.913C358.606 124.319 358.199 125.777 357.949 127.288C357.71 128.788 357.522 130.423 357.387 132.184C357.246 133.725 357.137 135.152 357.053 136.454C356.981 137.746 357.022 138.954 357.178 140.079C357.314 141.694 357.538 143.152 357.845 144.454C358.163 145.746 358.574 146.887 359.074 147.871C360.751 151.178 363.033 152.829 365.908 152.829C367.168 152.829 368.47 152.371 369.803 151.454C370.58 150.902 371.35 150.22 372.116 149.413C372.892 148.595 373.564 147.59 374.137 146.392C375.814 143.1 376.934 139.527 377.491 135.663C377.626 134.194 377.731 132.736 377.803 131.288C377.887 129.845 377.85 128.387 377.699 126.913C377.626 124.178 377.246 121.756 376.553 119.642C375.356 115.923 373.428 113.746 370.762 113.121Z" fill="#3D3B3A"/>
<path d="M396.24 109.642C396.308 109.715 396.412 109.783 396.552 109.85C396.62 109.991 396.709 110.116 396.823 110.225C396.933 110.324 397.058 110.444 397.198 110.579C397.75 111.152 398.188 111.642 398.511 112.059C398.829 112.475 399.162 112.866 399.511 113.225C399.927 113.642 400.063 113.954 399.927 114.163C399.927 114.303 399.927 114.465 399.927 114.642C399.927 114.824 399.855 115.09 399.719 115.434C399.511 116.283 399.313 116.97 399.136 117.496C398.969 118.012 398.849 118.449 398.782 118.809C398.349 121.408 398.136 122.777 398.136 122.913C398.136 123.121 398.313 122.986 398.677 122.496C399.438 121.303 400.417 120.006 401.615 118.6C402.808 117.199 404.12 115.887 405.552 114.663C406.995 113.428 408.49 112.408 410.032 111.6C411.584 110.783 413.099 110.371 414.573 110.371C415.974 110.371 416.99 110.673 417.615 111.267C418.25 111.866 418.745 112.829 419.094 114.163C419.386 115.428 419.417 117.288 419.198 119.746C419.125 120.527 419.058 121.246 418.99 121.913C418.917 122.579 418.849 123.303 418.782 124.079C418.709 124.428 418.657 124.694 418.615 124.871C418.584 125.038 418.573 125.158 418.573 125.225C418.573 125.298 418.552 125.444 418.511 125.663C418.48 125.871 418.433 126.152 418.365 126.496C418.292 126.777 418.24 127.038 418.198 127.288C418.167 127.527 418.157 127.824 418.157 128.184C418.084 128.741 417.959 129.444 417.782 130.288C417.615 131.137 417.386 132.152 417.094 133.329C416.954 133.902 416.886 134.381 416.886 134.767C416.886 135.158 416.849 135.454 416.782 135.663C416.709 135.871 416.677 136.079 416.677 136.288C416.677 136.496 416.641 136.673 416.573 136.809C416.084 139.767 415.766 142.444 415.615 144.829C415.474 147.204 415.584 148.887 415.948 149.871C416.292 150.72 416.5 151.178 416.573 151.246C416.641 151.246 416.677 151.267 416.677 151.309C416.677 151.34 416.849 151.527 417.198 151.871C417.974 152.444 418.641 152.725 419.198 152.725C420.042 152.725 420.698 152.267 421.157 151.35C421.615 150.434 422.224 148.642 422.99 145.975C423.209 145.059 423.391 144.6 423.532 144.6C423.808 144.6 424.052 144.85 424.261 145.35C424.261 145.491 424.292 145.777 424.365 146.204C424.433 146.621 424.537 147.006 424.677 147.35C424.829 147.767 424.907 148.09 424.907 148.309C424.907 148.517 424.907 148.694 424.907 148.829C424.683 149.803 424.204 150.944 423.469 152.246C422.73 153.553 421.907 154.486 420.99 155.038C420.157 155.522 419.141 155.626 417.948 155.35C416.615 155.069 415.5 154.361 414.615 153.204C413.74 152.038 413.125 150.616 412.782 148.934C412.709 148.574 412.641 148.048 412.573 147.35C412.5 146.642 412.5 145.803 412.573 144.829C412.641 143.637 412.834 141.902 413.157 139.621C413.474 137.329 413.912 134.887 414.469 132.288V131.975L414.677 131.017V130.704C414.677 130.288 414.709 130.048 414.782 129.975C414.917 129.616 415.271 127.611 415.844 123.954C416.329 120.527 416.469 117.986 416.261 116.329C416.052 114.678 415.558 113.678 414.782 113.329C414.365 113.194 413.938 113.121 413.511 113.121C412.469 113.194 411.313 113.559 410.052 114.225C408.787 114.892 407.344 115.928 405.719 117.329C404.886 118.178 403.974 119.178 402.99 120.329C402 121.486 401.052 122.678 400.136 123.913C399.23 125.137 398.448 126.402 397.782 127.704C397.115 129.012 396.667 130.256 396.448 131.434C396.24 132.423 396.032 133.512 395.823 134.704C395.615 135.902 395.334 137.163 394.99 138.496C394.834 139.204 394.724 139.663 394.657 139.871C394.584 140.079 394.552 140.256 394.552 140.392C394.552 140.392 394.48 140.746 394.344 141.454C393.995 142.928 393.662 144.194 393.344 145.246C393.021 146.303 392.761 147.074 392.552 147.559C392.48 147.631 392.427 147.788 392.386 148.038C392.355 148.277 392.271 148.678 392.136 149.246C391.787 150.095 391.454 151.059 391.136 152.142C390.813 153.225 390.448 154.402 390.032 155.663C389.959 155.881 389.787 155.996 389.511 155.996C389.37 155.996 389.157 155.975 388.865 155.934C388.584 155.892 388.308 155.871 388.032 155.871C387.75 155.871 387.521 155.85 387.344 155.809C387.162 155.777 387.105 155.73 387.177 155.663C388.662 151.803 389.855 147.861 390.761 143.829C391.677 139.788 392.49 135.736 393.198 131.663C393.334 130.538 393.474 129.506 393.615 128.559C393.75 127.6 393.891 126.631 394.032 125.642C394.24 124.033 394.412 122.616 394.552 121.392C394.688 120.158 394.802 119.158 394.886 118.392C394.954 117.824 394.969 117.329 394.927 116.913C394.896 116.486 394.954 116.163 395.094 115.954C395.094 115.954 395.094 115.715 395.094 115.225C395.23 114.381 395.282 113.553 395.24 112.746C395.209 111.944 395.198 111.116 395.198 110.267L395.094 109.746H395.511L395.823 109.642H396.24Z" fill="#3D3B3A"/>
<path d="M447.754 110.163C448.098 110.163 448.504 110.163 448.963 110.163C449.421 110.163 449.963 110.199 450.588 110.267C451.848 110.407 452.697 110.548 453.129 110.684C454.739 111.256 456.119 112.157 457.275 113.392C458.442 114.616 459.197 116.137 459.546 117.954C460.046 120.069 459.905 122.387 459.129 124.913C458.348 127.303 457.155 128.954 455.546 129.871C454.28 130.845 452.697 131.548 450.796 131.975C450.03 132.184 449.348 132.345 448.754 132.454C448.155 132.553 447.681 132.673 447.338 132.809C446.973 132.881 446.671 132.949 446.421 133.017C446.181 133.09 445.926 133.157 445.65 133.225C445.15 133.225 444.759 133.303 444.483 133.454C444.343 133.527 444.077 133.595 443.692 133.663C443.301 133.736 442.759 133.84 442.067 133.975C439.817 134.392 437.879 134.746 436.254 135.038C434.64 135.319 433.348 135.527 432.379 135.663L431.838 135.767L431.733 136.6C431.66 136.949 431.608 137.35 431.567 137.809C431.535 138.267 431.525 138.85 431.525 139.559C431.317 143.767 431.91 147.069 433.317 149.454C433.525 149.803 433.869 150.262 434.358 150.829C434.858 151.387 435.317 151.767 435.733 151.975C436.442 152.34 437.14 152.611 437.838 152.788C438.546 152.954 439.285 153.038 440.067 153.038C441.327 153.038 442.572 152.809 443.796 152.35C445.03 151.892 446.317 151.282 447.65 150.517C449.468 149.392 451.15 147.954 452.692 146.204C454.244 144.444 455.515 142.538 456.504 140.496C456.989 139.803 457.405 138.861 457.754 137.663L457.963 137.35L458.713 137.663C459.265 137.871 459.546 137.975 459.546 137.975C459.546 137.975 459.369 138.611 459.025 139.871C457.759 143.803 455.759 147.137 453.025 149.871C451.9 151.069 450.806 152.017 449.754 152.725C448.421 153.631 446.994 154.309 445.483 154.767C443.968 155.225 442.338 155.522 440.588 155.663C438.614 155.73 436.926 155.486 435.525 154.934C433.494 154.017 431.989 152.788 431.004 151.246C429.739 149.204 429.004 146.538 428.796 143.246C428.588 140.861 428.655 138.262 429.004 135.454C429.072 135.095 429.108 134.704 429.108 134.288C429.452 132.038 429.963 129.829 430.629 127.663C431.296 125.486 432.259 123.34 433.525 121.225C433.733 120.881 433.926 120.532 434.108 120.184C434.285 119.824 434.551 119.434 434.9 119.017C435.884 117.616 436.952 116.35 438.108 115.225C439.275 114.1 440.525 113.152 441.858 112.371C443.952 111.111 445.921 110.371 447.754 110.163ZM451.546 113.225C451.046 113.09 450.338 113.017 449.421 113.017C448.515 113.017 447.926 113.053 447.65 113.121C445.676 113.402 443.817 114.204 442.067 115.538C441.718 115.819 441.364 116.116 441.004 116.434C440.655 116.756 440.275 117.121 439.858 117.538C436.619 120.704 434.301 124.954 432.9 130.288C432.41 132.402 432.171 133.454 432.171 133.454C432.239 133.527 432.64 133.47 433.379 133.288C434.114 133.111 435.181 132.913 436.588 132.704C438.056 132.496 439.358 132.309 440.483 132.142C441.608 131.965 442.556 131.767 443.338 131.559C443.754 131.407 444.067 131.329 444.275 131.329C444.483 131.329 444.655 131.298 444.796 131.225C445.572 131.09 446.306 130.902 447.004 130.663C447.713 130.413 448.384 130.22 449.025 130.079C450.285 129.72 451.338 129.35 452.171 128.975C453.015 128.59 453.754 128.074 454.379 127.434C455.223 126.6 455.858 125.59 456.275 124.392C457.192 121.725 457.223 119.444 456.379 117.538C456.03 116.762 455.681 116.095 455.338 115.538C454.989 114.986 454.463 114.491 453.754 114.059C453.405 113.85 453.051 113.699 452.692 113.6C452.343 113.491 451.963 113.366 451.546 113.225Z" fill="#3D3B3A"/>
<path d="M85.7577 220.72C84.8514 220.72 84.0285 220.548 83.2785 220.199C82.5389 219.84 81.9452 219.319 81.4868 218.637C81.0389 217.944 80.8202 217.085 80.8202 216.053C80.8202 215.402 80.9295 214.793 81.1535 214.22C81.3879 213.637 81.7264 213.126 82.1743 212.678C82.617 212.236 83.1535 211.887 83.7785 211.637C84.4139 211.387 85.1431 211.262 85.966 211.262C86.3931 211.262 86.8462 211.303 87.3202 211.387C87.8045 211.47 88.2368 211.59 88.6118 211.741L88.716 213.887L88.0077 213.949L87.5493 212.47C87.341 212.335 87.0754 212.23 86.7577 212.157C86.4347 212.09 86.1222 212.053 85.8202 212.053C85.0389 212.053 84.4035 212.23 83.9035 212.574C83.4139 212.907 83.0545 213.361 82.8202 213.928C82.5806 214.486 82.466 215.105 82.466 215.782C82.466 216.657 82.617 217.407 82.9243 218.032C83.2264 218.647 83.6431 219.111 84.1743 219.428C84.7004 219.736 85.2837 219.887 85.9243 219.887C86.242 219.887 86.5389 219.855 86.8202 219.782C87.0962 219.699 87.3618 219.59 87.6118 219.449L88.2993 217.97L89.0077 218.053L88.5702 220.032C88.2056 220.199 87.7837 220.361 87.2993 220.512C86.8097 220.647 86.2993 220.72 85.7577 220.72Z" fill="#3D3B3A"/>
<path d="M99.7037 220.72C98.7975 220.72 97.9954 220.527 97.287 220.137C96.5787 219.736 96.0214 219.178 95.6204 218.47C95.2298 217.762 95.037 216.949 95.037 216.032C95.037 215.116 95.235 214.298 95.6412 213.574C96.0423 212.855 96.5995 212.293 97.3079 211.887C98.0266 211.47 98.8339 211.262 99.7245 211.262C100.6 211.262 101.37 211.465 102.037 211.866C102.704 212.256 103.225 212.798 103.6 213.491C103.985 214.189 104.183 214.991 104.183 215.907C104.183 216.616 104.063 217.262 103.829 217.845C103.589 218.428 103.266 218.939 102.85 219.366C102.433 219.798 101.954 220.131 101.412 220.366C100.87 220.6 100.297 220.72 99.7037 220.72ZM99.8495 219.866C100.417 219.866 100.902 219.72 101.308 219.428C101.725 219.137 102.042 218.73 102.266 218.199C102.485 217.657 102.6 217.022 102.6 216.282C102.6 215.449 102.464 214.715 102.204 214.074C101.954 213.439 101.6 212.939 101.141 212.574C100.693 212.215 100.162 212.032 99.537 212.032C98.662 212.032 97.9589 212.366 97.4329 213.032C96.9173 213.699 96.662 214.595 96.662 215.72C96.662 216.543 96.7923 217.262 97.0579 217.887C97.3339 218.501 97.7089 218.986 98.1829 219.345C98.6673 219.694 99.2245 219.866 99.8495 219.866Z" fill="#3D3B3A"/>
<path d="M110.639 211.407H113.348L116.619 218.887H116.348L119.556 211.407H122.098L122.139 211.991L121.181 212.199C121.165 212.34 121.16 212.611 121.16 213.012C121.171 213.418 121.181 213.845 121.181 214.303L121.244 217.157C121.254 217.689 121.27 218.126 121.285 218.47C121.296 218.819 121.306 219.095 121.306 219.303C121.316 219.501 121.332 219.657 121.348 219.782L122.306 219.97L122.264 220.574H118.952L118.91 219.97L119.869 219.782C119.869 219.657 119.869 219.512 119.869 219.345C119.869 219.178 119.869 218.944 119.869 218.637C119.869 218.335 119.869 217.923 119.869 217.407L119.827 211.845H120.244L116.452 220.616H115.91L112.035 211.845H112.431L112.452 217.157C112.452 218.022 112.452 218.647 112.452 219.032C112.462 219.423 112.478 219.668 112.494 219.762L113.556 219.97L113.494 220.574H110.431L110.389 219.97L111.452 219.762C111.462 219.694 111.473 219.564 111.473 219.366C111.483 219.157 111.494 218.897 111.494 218.574C111.504 218.241 111.514 217.855 111.514 217.407L111.556 214.303C111.566 213.845 111.566 213.428 111.556 213.053C111.556 212.668 111.556 212.387 111.556 212.22L110.619 211.991L110.639 211.407Z" fill="#3D3B3A"/>
<path d="M128.721 211.407H131.429L134.7 218.887H134.429L137.637 211.407H140.179L140.221 211.991L139.262 212.199C139.247 212.34 139.242 212.611 139.242 213.012C139.252 213.418 139.262 213.845 139.262 214.303L139.325 217.157C139.335 217.689 139.351 218.126 139.367 218.47C139.377 218.819 139.387 219.095 139.387 219.303C139.398 219.501 139.414 219.657 139.429 219.782L140.387 219.97L140.346 220.574H137.033L136.992 219.97L137.95 219.782C137.95 219.657 137.95 219.512 137.95 219.345C137.95 219.178 137.95 218.944 137.95 218.637C137.95 218.335 137.95 217.923 137.95 217.407L137.908 211.845H138.325L134.533 220.616H133.992L130.117 211.845H130.512L130.533 217.157C130.533 218.022 130.533 218.647 130.533 219.032C130.544 219.423 130.559 219.668 130.575 219.762L131.637 219.97L131.575 220.574H128.512L128.471 219.97L129.533 219.762C129.544 219.694 129.554 219.564 129.554 219.366C129.565 219.157 129.575 218.897 129.575 218.574C129.585 218.241 129.596 217.855 129.596 217.407L129.637 214.303C129.648 213.845 129.648 213.428 129.637 213.053C129.637 212.668 129.637 212.387 129.637 212.22L128.7 211.991L128.721 211.407Z" fill="#3D3B3A"/>
<path d="M153.531 220.657C153.224 220.626 152.953 220.605 152.719 220.595C152.479 220.579 152.261 220.574 152.052 220.574H146.698L146.656 219.97L147.615 219.762C147.625 219.71 147.636 219.59 147.636 219.407C147.646 219.215 147.656 218.96 147.656 218.637C147.667 218.319 147.677 217.928 147.677 217.47V214.532C147.677 214.064 147.667 213.668 147.656 213.345C147.656 213.012 147.646 212.756 147.636 212.574C147.636 212.381 147.625 212.262 147.615 212.22L146.656 211.991L146.698 211.407H151.719C151.854 211.407 152.011 211.407 152.177 211.407C152.344 211.407 152.516 211.402 152.698 211.387C152.875 211.361 153.073 211.345 153.281 211.345L153.594 213.407L152.886 213.512L152.365 212.199C152.281 212.173 152.182 212.157 152.073 212.157C151.974 212.157 151.87 212.157 151.761 212.157H149.99C149.792 212.157 149.62 212.157 149.469 212.157C149.313 212.157 149.167 212.173 149.031 212.199C149.031 212.241 149.021 212.361 149.011 212.553C149.011 212.751 149 212.97 148.99 213.22C148.99 213.47 148.99 213.72 148.99 213.97V218.178C148.99 218.387 148.99 218.605 148.99 218.824C149 219.032 149.011 219.22 149.011 219.387C149.021 219.543 149.031 219.652 149.031 219.72C149.182 219.736 149.334 219.751 149.49 219.762C149.641 219.777 149.823 219.782 150.031 219.782H151.531C151.766 219.782 151.953 219.782 152.094 219.782C152.245 219.772 152.365 219.756 152.448 219.741C152.531 219.73 152.599 219.72 152.656 219.72L153.469 218.22L154.156 218.366L153.531 220.657ZM151.781 217.366L151.594 216.303C151.552 216.293 151.469 216.277 151.344 216.262C151.219 216.251 151.063 216.241 150.886 216.241H149.698C149.557 216.241 149.406 216.251 149.24 216.262C149.084 216.277 148.927 216.282 148.761 216.282V215.428C148.927 215.444 149.084 215.46 149.24 215.47C149.406 215.47 149.557 215.47 149.698 215.47H150.886C151.063 215.47 151.219 215.47 151.344 215.47C151.469 215.46 151.552 215.439 151.594 215.407L151.781 214.345H152.469V217.366H151.781Z" fill="#3D3B3A"/>
<path d="M160.227 220.574L160.207 219.97L161.144 219.741C161.144 219.673 161.144 219.564 161.144 219.407C161.155 219.256 161.165 219.074 161.165 218.866C161.165 218.657 161.165 218.439 161.165 218.199C161.175 217.949 161.186 217.71 161.186 217.47V214.532C161.186 214.048 161.175 213.647 161.165 213.324C161.165 212.991 161.155 212.736 161.144 212.553C161.144 212.376 161.134 212.262 161.123 212.22L160.144 211.991L160.207 211.407H163.623C164.592 211.407 165.337 211.595 165.852 211.97C166.378 212.345 166.644 212.907 166.644 213.657C166.644 214.157 166.498 214.611 166.207 215.012C165.925 215.418 165.53 215.736 165.019 215.97C164.519 216.194 163.946 216.303 163.311 216.303H162.311V215.595H163.207C163.842 215.595 164.342 215.439 164.707 215.116C165.066 214.798 165.248 214.355 165.248 213.782C165.248 213.23 165.087 212.814 164.769 212.532C164.462 212.241 164.019 212.095 163.436 212.095H162.519C162.519 212.111 162.509 212.152 162.498 212.22C162.498 212.277 162.498 212.381 162.498 212.532C162.498 212.673 162.498 212.887 162.498 213.178C162.498 213.46 162.498 213.824 162.498 214.282V217.47C162.498 217.918 162.498 218.293 162.498 218.595C162.509 218.887 162.524 219.131 162.54 219.324C162.55 219.506 162.566 219.647 162.582 219.741L163.498 219.97L163.457 220.574H160.227ZM167.644 220.741C167.186 220.741 166.774 220.657 166.415 220.491C166.066 220.314 165.727 220.022 165.394 219.616C165.061 219.199 164.696 218.652 164.311 217.97L163.248 216.032L164.415 215.782L166.102 218.262C166.394 218.694 166.655 219.032 166.894 219.282C167.128 219.532 167.358 219.72 167.582 219.845C167.816 219.97 168.066 220.064 168.332 220.116V220.678C168.217 220.689 168.102 220.704 167.977 220.72C167.863 220.73 167.753 220.741 167.644 220.741Z" fill="#3D3B3A"/>
<path d="M178.825 220.72C177.918 220.72 177.095 220.548 176.345 220.199C175.606 219.84 175.012 219.319 174.554 218.637C174.106 217.944 173.887 217.085 173.887 216.053C173.887 215.402 173.996 214.793 174.22 214.22C174.455 213.637 174.793 213.126 175.241 212.678C175.684 212.236 176.22 211.887 176.845 211.637C177.481 211.387 178.21 211.262 179.033 211.262C179.46 211.262 179.913 211.303 180.387 211.387C180.871 211.47 181.304 211.59 181.679 211.741L181.783 213.887L181.075 213.949L180.616 212.47C180.408 212.335 180.142 212.23 179.825 212.157C179.502 212.09 179.189 212.053 178.887 212.053C178.106 212.053 177.47 212.23 176.97 212.574C176.481 212.907 176.121 213.361 175.887 213.928C175.647 214.486 175.533 215.105 175.533 215.782C175.533 216.657 175.684 217.407 175.991 218.032C176.293 218.647 176.71 219.111 177.241 219.428C177.767 219.736 178.351 219.887 178.991 219.887C179.309 219.887 179.606 219.855 179.887 219.782C180.163 219.699 180.429 219.59 180.679 219.449L181.366 217.97L182.075 218.053L181.637 220.032C181.272 220.199 180.851 220.361 180.366 220.512C179.877 220.647 179.366 220.72 178.825 220.72Z" fill="#3D3B3A"/>
<path d="M188.083 220.574L188.041 219.97L189 219.762C189.026 219.71 189.041 219.59 189.041 219.407C189.041 219.215 189.041 218.96 189.041 218.637C189.052 218.319 189.062 217.928 189.062 217.47V214.532C189.062 214.064 189.052 213.668 189.041 213.345C189.041 213.012 189.041 212.751 189.041 212.553C189.041 212.361 189.026 212.251 189 212.22L188.041 211.991L188.083 211.407H191.416L191.437 211.991L190.479 212.22C190.463 212.251 190.448 212.355 190.437 212.532C190.422 212.699 190.406 212.944 190.396 213.262C190.396 213.585 190.396 214.006 190.396 214.532V217.47C190.396 217.97 190.396 218.381 190.396 218.699C190.406 219.022 190.422 219.272 190.437 219.449C190.448 219.616 190.463 219.72 190.479 219.762L191.437 219.97L191.416 220.574H188.083Z" fill="#3D3B3A"/>
<path d="M196.998 220.574L196.977 219.97L197.748 219.762L200.956 211.657L201.873 211.116L205.269 219.762L206.06 219.97L205.998 220.574H202.852L202.81 219.97L203.769 219.762L202.852 217.449L202.685 216.97L200.977 212.72L201.331 212.512L199.706 216.97L199.54 217.428L198.706 219.762L199.665 219.97L199.623 220.574H196.998ZM199.185 217.678V216.845C199.394 216.861 199.665 216.876 199.998 216.887C200.342 216.902 200.769 216.907 201.269 216.907C201.753 216.907 202.17 216.902 202.519 216.887C202.878 216.876 203.149 216.861 203.331 216.845V217.678C202.982 217.668 202.628 217.657 202.269 217.657C201.92 217.657 201.586 217.657 201.269 217.657C200.961 217.657 200.633 217.657 200.29 217.657C199.956 217.657 199.586 217.668 199.185 217.678Z" fill="#3D3B3A"/>
<path d="M218.142 220.657C218.001 220.626 217.84 220.605 217.663 220.595C217.48 220.595 217.298 220.585 217.121 220.574C216.939 220.574 216.777 220.574 216.642 220.574H211.642L211.6 219.97L212.559 219.762C212.569 219.71 212.579 219.59 212.579 219.407C212.59 219.23 212.6 218.97 212.6 218.637C212.611 218.303 212.621 217.918 212.621 217.47V214.532C212.621 214.064 212.621 213.668 212.621 213.345C212.621 213.012 212.611 212.756 212.6 212.574C212.585 212.381 212.569 212.262 212.559 212.22L211.6 211.991L211.642 211.407H215.309L215.35 212.032L214.059 212.22C214.027 212.262 214.006 212.366 213.996 212.532C213.996 212.699 213.986 212.949 213.975 213.282C213.96 213.616 213.954 214.032 213.954 214.532V217.47C213.954 218.012 213.96 218.486 213.975 218.887C213.986 219.277 214.001 219.532 214.017 219.657C214.152 219.673 214.298 219.689 214.454 219.699C214.605 219.699 214.788 219.699 214.996 219.699H216.163C216.397 219.699 216.6 219.694 216.767 219.678C216.934 219.668 217.1 219.652 217.267 219.637L218.079 218.095L218.788 218.262L218.142 220.657Z" fill="#3D3B3A"/>
<path d="M237.185 220.72C236.279 220.72 235.456 220.548 234.706 220.199C233.966 219.84 233.372 219.319 232.914 218.637C232.466 217.944 232.247 217.085 232.247 216.053C232.247 215.402 232.357 214.793 232.581 214.22C232.815 213.637 233.154 213.126 233.602 212.678C234.044 212.236 234.581 211.887 235.206 211.637C235.841 211.387 236.57 211.262 237.393 211.262C237.82 211.262 238.274 211.303 238.747 211.387C239.232 211.47 239.664 211.59 240.039 211.741L240.143 213.887L239.435 213.949L238.977 212.47C238.768 212.335 238.503 212.23 238.185 212.157C237.862 212.09 237.55 212.053 237.247 212.053C236.466 212.053 235.831 212.23 235.331 212.574C234.841 212.907 234.482 213.361 234.247 213.928C234.008 214.486 233.893 215.105 233.893 215.782C233.893 216.657 234.044 217.407 234.352 218.032C234.654 218.647 235.07 219.111 235.602 219.428C236.128 219.736 236.711 219.887 237.352 219.887C237.669 219.887 237.966 219.855 238.247 219.782C238.524 219.699 238.789 219.59 239.039 219.449L239.727 217.97L240.435 218.053L239.997 220.032C239.633 220.199 239.211 220.361 238.727 220.512C238.237 220.647 237.727 220.72 237.185 220.72Z" fill="#3D3B3A"/>
<path d="M251.131 220.72C250.225 220.72 249.423 220.527 248.714 220.137C248.006 219.736 247.449 219.178 247.048 218.47C246.657 217.762 246.464 216.949 246.464 216.032C246.464 215.116 246.662 214.298 247.069 213.574C247.47 212.855 248.027 212.293 248.735 211.887C249.454 211.47 250.261 211.262 251.152 211.262C252.027 211.262 252.798 211.465 253.464 211.866C254.131 212.256 254.652 212.798 255.027 213.491C255.412 214.189 255.61 214.991 255.61 215.907C255.61 216.616 255.49 217.262 255.256 217.845C255.016 218.428 254.694 218.939 254.277 219.366C253.86 219.798 253.381 220.131 252.839 220.366C252.298 220.6 251.725 220.72 251.131 220.72ZM251.277 219.866C251.845 219.866 252.329 219.72 252.735 219.428C253.152 219.137 253.47 218.73 253.694 218.199C253.912 217.657 254.027 217.022 254.027 216.282C254.027 215.449 253.891 214.715 253.631 214.074C253.381 213.439 253.027 212.939 252.569 212.574C252.121 212.215 251.589 212.032 250.964 212.032C250.089 212.032 249.386 212.366 248.86 213.032C248.345 213.699 248.089 214.595 248.089 215.72C248.089 216.543 248.22 217.262 248.485 217.887C248.761 218.501 249.136 218.986 249.61 219.345C250.095 219.694 250.652 219.866 251.277 219.866Z" fill="#3D3B3A"/>
<path d="M269.088 218.345V214.845C269.088 214.22 269.077 213.73 269.067 213.366C269.067 212.991 269.056 212.715 269.046 212.532C269.03 212.355 269.015 212.251 269.004 212.22L267.942 211.991L267.983 211.407H270.963L271.004 211.991L270.046 212.22C270.046 212.251 270.03 212.355 270.004 212.532C269.989 212.715 269.973 212.991 269.963 213.366C269.963 213.741 269.963 214.236 269.963 214.845V218.553C269.963 218.887 269.963 219.23 269.963 219.574C269.963 219.923 269.968 220.277 269.983 220.637H269.275L263.525 212.907H263.858V217.095C263.858 217.72 263.864 218.22 263.879 218.595C263.89 218.97 263.905 219.251 263.921 219.428C263.931 219.611 263.947 219.72 263.963 219.762L265.025 219.97L264.983 220.574H261.983L261.921 219.97L262.879 219.762C262.905 219.72 262.921 219.611 262.921 219.428C262.931 219.251 262.947 218.97 262.963 218.595C262.973 218.22 262.983 217.72 262.983 217.095V214.407C262.983 213.949 262.973 213.569 262.963 213.262C262.947 212.96 262.931 212.72 262.921 212.553C262.921 212.387 262.905 212.277 262.879 212.22L261.921 211.991L261.983 211.407H264.108L269.358 218.345H269.088Z" fill="#3D3B3A"/>
<path d="M284.627 211.345L284.961 213.866L284.273 213.949L283.627 212.178C283.544 212.168 283.445 212.157 283.336 212.157C283.221 212.147 283.127 212.137 283.044 212.137H282.481C282.367 212.137 282.221 212.137 282.044 212.137C281.877 212.137 281.716 212.147 281.565 212.157C281.565 212.241 281.565 212.439 281.565 212.741C281.565 213.048 281.565 213.402 281.565 213.803C281.565 214.21 281.565 214.595 281.565 214.97V217.095C281.565 217.751 281.565 218.319 281.565 218.803C281.575 219.293 281.586 219.611 281.586 219.762L282.919 219.949L282.877 220.574H278.877L278.856 219.949L280.169 219.762C280.169 219.611 280.169 219.293 280.169 218.803C280.179 218.319 280.19 217.751 280.19 217.095V214.97C280.19 214.595 280.19 214.21 280.19 213.803C280.19 213.402 280.19 213.048 280.19 212.741C280.19 212.439 280.19 212.241 280.19 212.157C280.049 212.147 279.888 212.137 279.711 212.137C279.528 212.137 279.388 212.137 279.294 212.137H278.69C278.606 212.137 278.508 212.147 278.398 212.157C278.299 212.157 278.211 212.168 278.127 212.178L277.481 213.97L276.773 213.866L277.127 211.345C277.237 211.345 277.356 211.355 277.481 211.366C277.617 211.366 277.752 211.376 277.877 211.387C278.002 211.402 278.127 211.407 278.252 211.407C278.377 211.407 278.502 211.407 278.627 211.407H283.106C283.216 211.407 283.336 211.407 283.461 211.407C283.596 211.407 283.731 211.402 283.856 211.387C283.981 211.376 284.106 211.366 284.231 211.366C284.367 211.355 284.502 211.345 284.627 211.345Z" fill="#3D3B3A"/>
<path d="M290.839 220.574L290.818 219.97L291.756 219.741C291.756 219.673 291.756 219.564 291.756 219.407C291.766 219.256 291.776 219.074 291.776 218.866C291.776 218.657 291.776 218.439 291.776 218.199C291.787 217.949 291.797 217.71 291.797 217.47V214.532C291.797 214.048 291.787 213.647 291.776 213.324C291.776 212.991 291.766 212.736 291.756 212.553C291.756 212.376 291.745 212.262 291.735 212.22L290.756 211.991L290.818 211.407H294.235C295.204 211.407 295.948 211.595 296.464 211.97C296.99 212.345 297.256 212.907 297.256 213.657C297.256 214.157 297.11 214.611 296.818 215.012C296.537 215.418 296.141 215.736 295.631 215.97C295.131 216.194 294.558 216.303 293.922 216.303H292.922V215.595H293.818C294.454 215.595 294.954 215.439 295.318 215.116C295.678 214.798 295.86 214.355 295.86 213.782C295.86 213.23 295.698 212.814 295.381 212.532C295.073 212.241 294.631 212.095 294.047 212.095H293.131C293.131 212.111 293.12 212.152 293.11 212.22C293.11 212.277 293.11 212.381 293.11 212.532C293.11 212.673 293.11 212.887 293.11 213.178C293.11 213.46 293.11 213.824 293.11 214.282V217.47C293.11 217.918 293.11 218.293 293.11 218.595C293.12 218.887 293.136 219.131 293.151 219.324C293.162 219.506 293.178 219.647 293.193 219.741L294.11 219.97L294.068 220.574H290.839ZM298.256 220.741C297.797 220.741 297.386 220.657 297.026 220.491C296.678 220.314 296.339 220.022 296.006 219.616C295.672 219.199 295.308 218.652 294.922 217.97L293.86 216.032L295.026 215.782L296.714 218.262C297.006 218.694 297.266 219.032 297.506 219.282C297.74 219.532 297.969 219.72 298.193 219.845C298.428 219.97 298.678 220.064 298.943 220.116V220.678C298.829 220.689 298.714 220.704 298.589 220.72C298.474 220.73 298.365 220.741 298.256 220.741Z" fill="#3D3B3A"/>
<path d="M303.728 220.574L303.707 219.97L304.478 219.762L307.686 211.657L308.603 211.116L311.999 219.762L312.79 219.97L312.728 220.574H309.582L309.54 219.97L310.499 219.762L309.582 217.449L309.415 216.97L307.707 212.72L308.061 212.512L306.436 216.97L306.269 217.428L305.436 219.762L306.394 219.97L306.353 220.574H303.728ZM305.915 217.678V216.845C306.124 216.861 306.394 216.876 306.728 216.887C307.071 216.902 307.499 216.907 307.999 216.907C308.483 216.907 308.9 216.902 309.249 216.887C309.608 216.876 309.879 216.861 310.061 216.845V217.678C309.712 217.668 309.358 217.657 308.999 217.657C308.65 217.657 308.316 217.657 307.999 217.657C307.691 217.657 307.363 217.657 307.019 217.657C306.686 217.657 306.316 217.668 305.915 217.678Z" fill="#3D3B3A"/>
<path d="M323.33 220.72C322.424 220.72 321.601 220.548 320.851 220.199C320.111 219.84 319.518 219.319 319.059 218.637C318.611 217.944 318.393 217.085 318.393 216.053C318.393 215.402 318.502 214.793 318.726 214.22C318.96 213.637 319.299 213.126 319.747 212.678C320.189 212.236 320.726 211.887 321.351 211.637C321.986 211.387 322.715 211.262 323.538 211.262C323.965 211.262 324.419 211.303 324.893 211.387C325.377 211.47 325.809 211.59 326.184 211.741L326.288 213.887L325.58 213.949L325.122 212.47C324.913 212.335 324.648 212.23 324.33 212.157C324.007 212.09 323.695 212.053 323.393 212.053C322.611 212.053 321.976 212.23 321.476 212.574C320.986 212.907 320.627 213.361 320.393 213.928C320.153 214.486 320.038 215.105 320.038 215.782C320.038 216.657 320.189 217.407 320.497 218.032C320.799 218.647 321.215 219.111 321.747 219.428C322.273 219.736 322.856 219.887 323.497 219.887C323.814 219.887 324.111 219.855 324.393 219.782C324.669 219.699 324.934 219.59 325.184 219.449L325.872 217.97L326.58 218.053L326.143 220.032C325.778 220.199 325.356 220.361 324.872 220.512C324.382 220.647 323.872 220.72 323.33 220.72Z" fill="#3D3B3A"/>
<path d="M339.922 211.345L340.255 213.866L339.568 213.949L338.922 212.178C338.839 212.168 338.74 212.157 338.63 212.157C338.516 212.147 338.422 212.137 338.339 212.137H337.776C337.662 212.137 337.516 212.137 337.339 212.137C337.172 212.137 337.01 212.147 336.859 212.157C336.859 212.241 336.859 212.439 336.859 212.741C336.859 213.048 336.859 213.402 336.859 213.803C336.859 214.21 336.859 214.595 336.859 214.97V217.095C336.859 217.751 336.859 218.319 336.859 218.803C336.87 219.293 336.88 219.611 336.88 219.762L338.214 219.949L338.172 220.574H334.172L334.151 219.949L335.464 219.762C335.464 219.611 335.464 219.293 335.464 218.803C335.474 218.319 335.484 217.751 335.484 217.095V214.97C335.484 214.595 335.484 214.21 335.484 213.803C335.484 213.402 335.484 213.048 335.484 212.741C335.484 212.439 335.484 212.241 335.484 212.157C335.344 212.147 335.182 212.137 335.005 212.137C334.823 212.137 334.682 212.137 334.589 212.137H333.984C333.901 212.137 333.802 212.147 333.693 212.157C333.594 212.157 333.505 212.168 333.422 212.178L332.776 213.97L332.068 213.866L332.422 211.345C332.531 211.345 332.651 211.355 332.776 211.366C332.912 211.366 333.047 211.376 333.172 211.387C333.297 211.402 333.422 211.407 333.547 211.407C333.672 211.407 333.797 211.407 333.922 211.407H338.401C338.51 211.407 338.63 211.407 338.755 211.407C338.891 211.407 339.026 211.402 339.151 211.387C339.276 211.376 339.401 211.366 339.526 211.366C339.662 211.355 339.797 211.345 339.922 211.345Z" fill="#3D3B3A"/>
<path d="M350.779 220.72C349.873 220.72 349.071 220.527 348.363 220.137C347.654 219.736 347.097 219.178 346.696 218.47C346.305 217.762 346.113 216.949 346.113 216.032C346.113 215.116 346.311 214.298 346.717 213.574C347.118 212.855 347.675 212.293 348.384 211.887C349.102 211.47 349.91 211.262 350.8 211.262C351.675 211.262 352.446 211.465 353.113 211.866C353.779 212.256 354.3 212.798 354.675 213.491C355.061 214.189 355.259 214.991 355.259 215.907C355.259 216.616 355.139 217.262 354.904 217.845C354.665 218.428 354.342 218.939 353.925 219.366C353.509 219.798 353.029 220.131 352.488 220.366C351.946 220.6 351.373 220.72 350.779 220.72ZM350.925 219.866C351.493 219.866 351.977 219.72 352.384 219.428C352.8 219.137 353.118 218.73 353.342 218.199C353.561 217.657 353.675 217.022 353.675 216.282C353.675 215.449 353.54 214.715 353.279 214.074C353.029 213.439 352.675 212.939 352.217 212.574C351.769 212.215 351.238 212.032 350.613 212.032C349.738 212.032 349.035 212.366 348.509 213.032C347.993 213.699 347.738 214.595 347.738 215.72C347.738 216.543 347.868 217.262 348.134 217.887C348.41 218.501 348.785 218.986 349.259 219.345C349.743 219.694 350.3 219.866 350.925 219.866Z" fill="#3D3B3A"/>
<path d="M361.653 220.574L361.632 219.97L362.569 219.741C362.569 219.673 362.569 219.564 362.569 219.407C362.58 219.256 362.59 219.074 362.59 218.866C362.59 218.657 362.59 218.439 362.59 218.199C362.6 217.949 362.611 217.71 362.611 217.47V214.532C362.611 214.048 362.6 213.647 362.59 213.324C362.59 212.991 362.58 212.736 362.569 212.553C362.569 212.376 362.559 212.262 362.548 212.22L361.569 211.991L361.632 211.407H365.048C366.017 211.407 366.762 211.595 367.278 211.97C367.804 212.345 368.069 212.907 368.069 213.657C368.069 214.157 367.923 214.611 367.632 215.012C367.35 215.418 366.955 215.736 366.444 215.97C365.944 216.194 365.371 216.303 364.736 216.303H363.736V215.595H364.632C365.267 215.595 365.767 215.439 366.132 215.116C366.491 214.798 366.673 214.355 366.673 213.782C366.673 213.23 366.512 212.814 366.194 212.532C365.887 212.241 365.444 212.095 364.861 212.095H363.944C363.944 212.111 363.934 212.152 363.923 212.22C363.923 212.277 363.923 212.381 363.923 212.532C363.923 212.673 363.923 212.887 363.923 213.178C363.923 213.46 363.923 213.824 363.923 214.282V217.47C363.923 217.918 363.923 218.293 363.923 218.595C363.934 218.887 363.949 219.131 363.965 219.324C363.975 219.506 363.991 219.647 364.007 219.741L364.923 219.97L364.882 220.574H361.653ZM369.069 220.741C368.611 220.741 368.199 220.657 367.84 220.491C367.491 220.314 367.153 220.022 366.819 219.616C366.486 219.199 366.121 218.652 365.736 217.97L364.673 216.032L365.84 215.782L367.528 218.262C367.819 218.694 368.08 219.032 368.319 219.282C368.554 219.532 368.783 219.72 369.007 219.845C369.241 219.97 369.491 220.064 369.757 220.116V220.678C369.642 220.689 369.528 220.704 369.403 220.72C369.288 220.73 369.179 220.741 369.069 220.741Z" fill="#3D3B3A"/>
<path d="M378.02 220.72C377.562 220.72 377.088 220.663 376.604 220.553C376.13 220.428 375.734 220.277 375.416 220.095L375.354 218.095L376.02 218.032L376.458 219.407C376.708 219.574 376.984 219.71 377.291 219.803C377.593 219.887 377.916 219.928 378.25 219.928C378.76 219.928 379.171 219.803 379.479 219.553C379.796 219.303 379.958 218.965 379.958 218.532C379.958 218.173 379.843 217.876 379.625 217.637C379.401 217.387 379.114 217.173 378.77 216.991C378.421 216.814 378.052 216.637 377.666 216.47C377.276 216.293 376.906 216.09 376.562 215.866C376.213 215.647 375.927 215.366 375.708 215.032C375.484 214.699 375.375 214.293 375.375 213.803C375.375 213.303 375.51 212.861 375.791 212.47C376.083 212.085 376.479 211.782 376.979 211.574C377.479 211.355 378.052 211.241 378.708 211.241C378.968 211.241 379.229 211.256 379.479 211.282C379.739 211.314 379.984 211.355 380.208 211.407C380.427 211.465 380.625 211.527 380.791 211.595L380.916 213.553L380.25 213.616L379.812 212.303C379.479 212.095 379.052 211.991 378.541 211.991C378 211.991 377.567 212.126 377.25 212.387C376.942 212.652 376.791 212.991 376.791 213.407C376.791 213.782 376.901 214.095 377.125 214.345C377.343 214.595 377.63 214.819 377.979 215.012C378.323 215.194 378.692 215.376 379.083 215.553C379.468 215.72 379.838 215.918 380.187 216.137C380.546 216.361 380.838 216.631 381.062 216.949C381.281 217.256 381.395 217.647 381.395 218.116C381.395 218.616 381.25 219.064 380.958 219.449C380.666 219.84 380.26 220.152 379.75 220.387C379.25 220.605 378.671 220.72 378.02 220.72Z" fill="#3D3B3A"/>
<path d="M429.995 0.765625V52.9844" stroke="#3D3B3A"/>
<path d="M42.2292 196.099L42.2292 246.865" stroke="#3D3B3A"/>
<path d="M220.839 36.3473C220.839 36.3473 220.922 36.2587 221.089 36.0764C221.224 35.8837 221.323 35.7952 221.38 35.8056C221.448 35.8212 221.599 35.8264 221.839 35.8264C221.922 35.8577 222.026 35.8785 222.151 35.8889C222.286 35.9045 222.385 35.9254 222.443 35.9514C222.734 35.9827 223.036 36.0139 223.359 36.0556C223.677 36.0973 224.01 36.1389 224.359 36.1806C224.443 36.2118 224.531 36.2223 224.63 36.2223C224.74 36.2223 224.88 36.2379 225.047 36.2639C225.255 36.2952 225.359 36.3056 225.359 36.3056C225.359 36.3056 225.297 36.4514 225.172 36.7431L224.964 37.1806H224.484C223.443 37.1806 222.495 37.2223 221.651 37.3056C221.594 37.3056 221.516 37.316 221.422 37.3264C221.339 37.342 221.224 37.3473 221.089 37.3473C220.766 37.3785 220.365 37.3889 219.88 37.3889C219.406 37.3889 218.839 37.4202 218.172 37.4723C217.682 37.5035 217.318 37.5243 217.068 37.5348C216.818 37.5504 216.661 37.5556 216.609 37.5556C216.344 37.5556 216.219 37.566 216.234 37.5764C216.245 37.592 216.286 37.6598 216.359 37.7848C216.469 37.9514 216.589 38.1337 216.714 38.3264C216.849 38.5243 216.99 38.7431 217.13 38.9931C217.214 39.092 217.255 39.2223 217.255 39.3889C217.198 39.5973 217.161 39.8993 217.151 40.2848C217.135 40.6754 217.073 41.1493 216.964 41.7014C216.932 41.8993 216.906 42.0712 216.88 42.2223C216.849 42.3629 216.823 42.4931 216.797 42.6181C216.781 42.7014 216.776 42.8056 216.776 42.9306C216.786 43.0556 216.786 43.1806 216.776 43.3056C216.745 43.8212 216.703 44.2587 216.651 44.6181C216.594 44.842 216.568 45.0243 216.568 45.1598C216.568 45.2848 216.552 45.3889 216.526 45.4723C216.526 45.5295 216.495 45.6962 216.443 45.9723C216.385 46.2535 216.344 46.4618 216.318 46.5973C216.276 46.9202 216.245 47.1702 216.234 47.3473C216.219 47.5295 216.214 47.691 216.214 47.8264C216.047 48.9827 215.844 50.3004 215.609 51.7848C215.526 52.2743 215.469 52.6493 215.443 52.9098C215.411 53.1754 215.385 53.3368 215.359 53.3889C215.328 53.4723 215.297 53.6181 215.255 53.8264C215.198 54.2014 215.172 54.3889 215.172 54.3889C215.057 54.7639 214.948 55.2118 214.839 55.7223C214.74 56.2223 214.609 56.8056 214.443 57.4723C214.318 58.1389 214.193 58.6754 214.068 59.0764C213.943 59.467 213.849 59.7431 213.797 59.9098C213.797 59.941 213.786 59.9723 213.776 60.0139C213.776 60.0556 213.776 60.1129 213.776 60.1806C213.719 60.2379 213.693 60.3056 213.693 60.3889C213.693 60.4723 213.693 60.5295 213.693 60.5556C213.661 60.5868 213.63 60.6337 213.589 60.7014C213.547 60.7587 213.526 60.816 213.526 60.8681C213.495 60.9827 213.464 61.092 213.422 61.2014C213.38 61.3004 213.344 61.4202 213.318 61.5556C213.302 61.5973 213.276 61.7014 213.234 61.8681C213.193 62.0348 213.156 62.1389 213.13 62.1806V62.3056C213.099 62.3316 212.927 62.3316 212.609 62.3056C212.443 62.2743 212.318 62.2483 212.234 62.2223C212.161 62.191 212.115 62.1806 212.089 62.1806C212.031 62.1806 212.089 61.9827 212.255 61.5973C212.349 61.2952 212.448 61.0243 212.547 60.7848C212.641 60.5504 212.719 60.3264 212.776 60.1181C212.818 59.9254 212.849 59.7952 212.88 59.7223C212.906 59.6389 212.922 59.5868 212.922 59.5556C213.005 59.2379 213.115 58.8212 213.255 58.3056C213.406 57.7795 213.568 57.1285 213.734 56.3473C213.76 56.1962 213.781 56.0556 213.797 55.9306C213.823 55.8056 213.849 55.7014 213.88 55.6181C213.932 55.4931 213.974 55.3212 214.005 55.0973C214.031 54.8629 214.073 54.5712 214.13 54.2223C214.24 53.6962 214.339 53.2118 214.422 52.7639C214.516 52.3056 214.594 51.8785 214.651 51.4723C214.828 50.3212 214.964 49.1702 215.047 48.0139C215.13 46.8473 215.214 45.6806 215.297 44.5139C215.297 44.3473 215.302 44.1702 215.318 43.9723C215.344 43.7639 215.359 43.6493 215.359 43.6181C215.385 43.2014 215.401 42.7327 215.401 42.2014C215.401 41.6598 215.401 41.0556 215.401 40.3889C215.401 40.0452 215.401 39.6806 215.401 39.3056C215.401 38.9306 215.37 38.5556 215.318 38.1806L215.297 37.5973H215.13C215.016 37.5973 214.906 37.6077 214.797 37.6181C214.781 37.6181 214.635 37.6389 214.359 37.6806C214.094 37.7223 213.698 37.7587 213.172 37.7848C211.891 37.842 210.995 37.8889 210.484 37.9306C209.984 37.9723 209.693 37.9931 209.609 37.9931C209.469 38.0243 209.365 38.0295 209.297 38.0139C209.24 38.0035 209.182 37.9931 209.13 37.9931C209.016 37.9931 208.714 37.8473 208.214 37.5556C207.99 37.4462 207.849 37.3629 207.797 37.3056C207.755 37.2795 207.734 37.2535 207.734 37.2223C207.76 37.1545 207.776 37.092 207.776 37.0348C207.818 36.9827 207.839 36.9514 207.839 36.9514C207.865 36.9254 207.995 36.9045 208.234 36.8889C208.484 36.8785 208.755 36.8629 209.047 36.8473C209.339 36.8368 209.615 36.8212 209.88 36.8056C210.156 36.7952 210.344 36.7848 210.443 36.7848C210.609 36.7587 210.786 36.7379 210.984 36.7223C211.193 36.7118 211.401 36.7014 211.609 36.7014C211.734 36.7014 211.901 36.6962 212.109 36.6806C212.328 36.6702 212.557 36.6598 212.797 36.6598C213.047 36.6598 213.266 36.6598 213.464 36.6598C213.672 36.6598 213.807 36.6598 213.88 36.6598C214.547 36.6181 215.318 36.5868 216.193 36.5556C217.078 36.5295 218.115 36.5035 219.297 36.4723C220.255 36.4462 220.766 36.4045 220.839 36.3473Z" fill="#3D3B3A"/>
<path d="M231.085 36.5139C231.168 36.4879 231.23 36.4723 231.272 36.4723C231.241 36.4723 231.381 36.6493 231.689 36.9931C231.782 37.2327 231.902 37.4202 232.043 37.5556C232.095 37.6546 232.137 37.7171 232.168 37.7431L232.48 38.2223C232.506 38.2535 232.548 38.3212 232.605 38.4306L232.751 38.6181L232.689 39.1806C232.657 39.3212 232.637 39.4618 232.626 39.5973C232.611 39.7223 232.59 39.8577 232.564 39.9931C232.532 40.0764 232.512 40.2171 232.501 40.4098C232.486 40.6077 232.449 40.8785 232.397 41.2223C232.34 41.5452 232.303 41.8056 232.293 42.0139C232.277 42.2118 232.256 42.3368 232.23 42.3889C232.215 42.5035 232.21 42.691 232.21 42.9514C232.126 43.2743 232.085 43.566 232.085 43.8264C232.027 43.9931 231.991 44.1493 231.98 44.2848C231.965 44.4098 231.944 44.5348 231.918 44.6598V44.8264L231.835 45.2223V45.3889C231.803 45.6285 231.762 45.9046 231.71 46.2223C231.668 46.5452 231.616 46.8577 231.564 47.1598C231.506 47.4514 231.465 47.7223 231.439 47.9723C231.407 48.2223 231.397 48.3889 231.397 48.4723C231.366 48.6806 231.355 48.7848 231.355 48.7848C231.355 48.7848 231.397 48.7223 231.48 48.5973C231.715 48.2223 232.022 47.8212 232.397 47.3889C232.772 46.9618 233.173 46.566 233.605 46.2014C234.048 45.8421 234.522 45.5452 235.022 45.3056C235.532 45.0712 236.032 44.9514 236.522 44.9514C236.949 44.9514 237.324 45.0504 237.647 45.2431C237.965 45.4254 238.189 45.7014 238.314 46.0764C238.506 46.5504 238.564 47.2639 238.48 48.2223C238.449 48.3629 238.423 48.5348 238.397 48.7431C238.366 48.941 238.34 49.1389 238.314 49.3473C238.256 49.5556 238.23 49.7014 238.23 49.7848C238.215 49.8993 238.21 50.0139 238.21 50.1389C238.21 50.2535 238.194 50.3785 238.168 50.5139C238.111 50.7223 238.074 50.9098 238.064 51.0764C238.048 51.2327 238.027 51.3368 238.001 51.3889C237.944 51.7952 237.881 52.2171 237.814 52.6598C237.741 53.0921 237.673 53.5504 237.605 54.0348C237.465 54.8837 237.345 55.6389 237.251 56.3056C237.168 56.9723 237.095 57.5348 237.043 57.9931C237.012 58.2327 236.991 58.4671 236.98 58.7014C236.965 58.9254 236.986 59.1546 237.043 59.3889C237.095 59.5712 237.137 59.7379 237.168 59.8889C237.194 60.0452 237.241 60.1806 237.314 60.3056C237.449 60.5452 237.637 60.7223 237.876 60.8473C238.111 60.9723 238.366 61.0087 238.647 60.9514C239.032 60.8421 239.387 60.1598 239.71 58.9098C239.736 58.8577 239.751 58.7952 239.751 58.7223C239.751 58.6546 239.777 58.5712 239.835 58.4723C239.835 58.3889 239.861 58.316 239.918 58.2431C239.97 58.1754 239.986 58.1181 239.96 58.0764L239.918 57.9098L240.314 57.8264V57.9098C240.423 57.9671 240.491 58.1702 240.522 58.5139C240.548 58.6962 240.569 58.8368 240.585 58.9306C240.595 59.0296 240.616 59.0973 240.647 59.1389C240.689 59.2223 240.694 59.3264 240.668 59.4514C240.652 59.566 240.616 59.7014 240.564 59.8681C240.157 61.1181 239.553 61.8264 238.751 61.9931C238.303 62.0764 237.814 61.9618 237.272 61.6598C236.949 61.5087 236.699 61.2848 236.522 60.9931C236.355 60.7014 236.22 60.3837 236.126 60.0348C236.043 59.691 235.991 59.3368 235.98 58.9723C235.965 58.6129 235.96 58.2743 235.96 57.9514C235.986 57.4931 236.012 57.0348 236.043 56.5764C236.069 56.1077 236.126 55.6181 236.21 55.1181C236.251 54.9514 236.277 54.816 236.293 54.7014C236.303 54.5764 236.324 54.4462 236.355 54.3056C236.355 54.2223 236.381 54.0504 236.439 53.7848C236.491 53.5243 236.548 53.2431 236.605 52.9514C236.657 52.6598 236.71 52.3993 236.751 52.1598C236.803 51.9098 236.835 51.7848 236.835 51.7848C236.97 50.8264 237.074 50.0087 237.147 49.3264C237.23 48.6493 237.256 48.1077 237.23 47.7014C237.157 46.7743 236.939 46.2327 236.564 46.0764C236.298 45.941 235.923 45.9618 235.439 46.1389C235.116 46.2535 234.772 46.441 234.397 46.7014C234.022 46.9514 233.668 47.2379 233.335 47.5556C233.001 47.8785 232.694 48.2014 232.418 48.5348C232.137 48.8681 231.918 49.1806 231.751 49.4723C231.71 49.5556 231.673 49.6181 231.647 49.6598C231.616 49.691 231.574 49.7327 231.522 49.7848C231.381 49.9254 231.272 50.0921 231.189 50.2848C231.116 50.4671 231.043 50.6493 230.96 50.8264C230.902 50.9098 230.861 51.0556 230.835 51.2639C230.803 51.4618 230.762 51.7327 230.71 52.0764C230.527 53.3004 230.319 54.4306 230.085 55.4723C229.861 56.5139 229.569 57.6181 229.21 58.7848C229.126 59.0243 229.053 59.2118 229.001 59.3473C228.944 59.4879 228.918 59.5764 228.918 59.6181C228.918 59.6754 228.902 59.7171 228.876 59.7431C228.845 59.8837 228.814 60.0452 228.772 60.2223C228.73 60.3889 228.657 60.6181 228.564 60.9098C228.506 61.066 228.47 61.1962 228.46 61.3056C228.444 61.4202 228.407 61.5035 228.355 61.5556C228.324 61.5973 228.303 61.6702 228.293 61.7639C228.277 61.8629 228.251 61.9098 228.21 61.9098C228.043 61.8785 227.887 61.8577 227.751 61.8264C227.678 61.8004 227.574 61.7848 227.439 61.7848L227.314 61.7431C227.189 61.7431 227.157 61.6806 227.23 61.5556C227.256 61.5296 227.277 61.4618 227.293 61.3473C227.303 61.2379 227.355 61.1077 227.439 60.9514C227.522 60.691 227.605 60.4618 227.689 60.2639C227.73 60.1389 227.772 60.0035 227.814 59.8473C227.855 59.6806 227.902 59.5139 227.96 59.3473C227.986 59.2952 228.022 59.2118 228.064 59.0973C228.105 58.9723 228.126 58.8837 228.126 58.8264C228.303 58.2743 228.486 57.6493 228.668 56.9514C228.861 56.2587 229.032 55.5504 229.189 54.8264C229.355 54.1077 229.491 53.3889 229.605 52.6806C229.73 51.9723 229.835 51.3264 229.918 50.7431C229.944 50.7171 229.96 50.6598 229.96 50.5764C229.96 50.4827 229.96 50.4046 229.96 50.3473C230.012 50.2379 230.043 50.0764 230.043 49.8681C230.095 49.7014 230.126 49.5712 230.126 49.4723C230.126 49.3629 230.137 49.2639 230.168 49.1806C230.21 48.8889 230.236 48.5973 230.251 48.3056C230.262 48.0139 230.298 47.7379 230.355 47.4723C230.355 47.4202 230.361 47.3577 230.376 47.2848C230.387 47.2171 230.397 47.1337 230.397 47.0348C230.48 46.4254 230.564 45.7431 230.647 44.9931C230.647 44.8577 230.652 44.7223 230.668 44.5973C230.678 44.4618 230.689 44.3056 230.689 44.1389C230.699 43.9879 230.71 43.8577 230.71 43.7431C230.71 43.6181 230.72 43.5035 230.751 43.3889C230.777 43.3056 230.782 43.2223 230.772 43.1389C230.756 43.0452 230.762 42.941 230.793 42.8264C230.762 42.6754 230.756 42.4723 230.772 42.2223C230.782 41.9618 230.803 41.6546 230.835 41.3056C230.861 40.5556 230.881 39.8368 230.897 39.1389C230.907 38.4306 230.918 37.691 230.918 36.9098L230.876 36.5139H231.085Z" fill="#3D3B3A"/>
<path d="M249.153 44.8264C249.288 44.8264 249.445 44.8264 249.611 44.8264C249.788 44.8264 249.997 44.842 250.236 44.8681C250.705 44.9254 251.028 44.9827 251.195 45.0347C251.804 45.2431 252.325 45.5868 252.757 46.0556C253.2 46.5139 253.492 47.092 253.632 47.7847C253.825 48.592 253.768 49.4722 253.465 50.4306C253.174 51.3368 252.721 51.9618 252.111 52.3056C251.637 52.6806 251.038 52.9514 250.32 53.1181C250.028 53.191 249.762 53.2431 249.528 53.2847C249.304 53.3264 249.122 53.3785 248.986 53.4306C248.861 53.4618 248.747 53.4879 248.653 53.5139C248.554 53.5452 248.455 53.5712 248.361 53.5972C248.163 53.5972 248.018 53.6181 247.924 53.6597C247.867 53.691 247.762 53.717 247.611 53.7431C247.471 53.7743 247.262 53.816 246.986 53.8681C246.137 54.0347 245.408 54.1754 244.799 54.2847C244.184 54.3837 243.695 54.4618 243.32 54.5139L243.111 54.5556L243.07 54.8681C243.038 55.0087 243.018 55.1702 243.007 55.3472C242.992 55.5139 242.986 55.7327 242.986 55.9931C242.913 57.592 243.143 58.842 243.674 59.7431C243.757 59.8837 243.887 60.066 244.07 60.2847C244.262 60.4931 244.434 60.6337 244.59 60.7014C244.851 60.842 245.117 60.9462 245.382 61.0139C245.658 61.0868 245.945 61.1181 246.236 61.1181C246.705 61.1181 247.179 61.0347 247.653 60.8681C248.122 60.691 248.611 60.4462 249.111 60.1389C249.804 59.7222 250.445 59.1806 251.028 58.5139C251.622 57.8472 252.101 57.1285 252.465 56.3472C252.658 56.0868 252.82 55.7222 252.945 55.2639L253.028 55.1389L253.32 55.2639C253.528 55.3472 253.632 55.3889 253.632 55.3889C253.632 55.3889 253.559 55.6337 253.424 56.1181C252.95 57.6077 252.195 58.8681 251.153 59.9097C250.721 60.3681 250.309 60.7327 249.924 60.9931C249.408 61.342 248.861 61.6077 248.278 61.7847C247.705 61.9514 247.09 62.0608 246.424 62.1181C245.684 62.1285 245.049 62.0347 244.507 61.8264C243.742 61.4827 243.174 61.0139 242.799 60.4306C242.309 59.6545 242.028 58.6389 241.945 57.3889C241.872 56.4879 241.903 55.5035 242.028 54.4306C242.054 54.2952 242.07 54.1493 242.07 53.9931C242.205 53.1337 242.403 52.2952 242.653 51.4722C242.903 50.6389 243.268 49.8264 243.757 49.0347C243.84 48.8993 243.908 48.7639 243.965 48.6389C244.033 48.5035 244.137 48.3472 244.278 48.1806C244.653 47.6545 245.054 47.1806 245.486 46.7639C245.929 46.3368 246.408 45.967 246.924 45.6597C247.715 45.191 248.455 44.9097 249.153 44.8264ZM250.59 45.9931C250.408 45.941 250.143 45.9097 249.799 45.9097C249.45 45.9097 249.221 45.9254 249.111 45.9514C248.361 46.066 247.653 46.3681 246.986 46.8681C246.861 46.9827 246.726 47.0972 246.59 47.2222C246.465 47.3368 246.32 47.467 246.153 47.6181C244.929 48.8264 244.049 50.4462 243.507 52.4722C243.325 53.2639 243.236 53.6597 243.236 53.6597C243.262 53.691 243.413 53.6754 243.695 53.6181C243.971 53.5504 244.382 53.4722 244.924 53.3889C245.476 53.3056 245.965 53.2379 246.382 53.1806C246.809 53.1129 247.174 53.0347 247.465 52.9514C247.632 52.8993 247.747 52.8681 247.82 52.8681C247.903 52.8681 247.971 52.8577 248.028 52.8264C248.32 52.7743 248.596 52.7014 248.861 52.6181C249.137 52.5243 249.393 52.4462 249.632 52.3889C250.117 52.2535 250.518 52.1129 250.84 51.9722C251.158 51.8212 251.434 51.6285 251.674 51.3889C251.992 51.0712 252.236 50.6806 252.403 50.2222C252.747 49.2118 252.757 48.342 252.424 47.6181C252.299 47.3264 252.163 47.0764 252.028 46.8681C251.903 46.6597 251.7 46.4722 251.424 46.3056C251.299 46.2222 251.163 46.1702 251.028 46.1389C250.903 46.0972 250.757 46.0504 250.59 45.9931Z" fill="#3D3B3A"/>
<path d="M41.7292 246.865H431" stroke="#3D3B3A"/>
<path d="M41.2292 0.604172H430.5" stroke="#3D3B3A"/>
<path d="M41.224 0.4375V66.7865" stroke="#3D3B3A"/>
<path d="M430.495 180.516V246.87" stroke="#3D3B3A"/>
</svg>
